/* XPM */
static char * colectible_xpm[] = {
"16 16 11 1",
" 	c #514047",
".	c #77514C",
"+	c #8D5D57",
"@	c #000000",
"#	c #8F563B",
"$	c #663931",
"%	c #D4D4D4",
"&	c #59413E",
"*	c #FFFFFF",
"=	c #4B692F",
"-	c #62893E",
" .....   .....  ",
"......+ ......+ ",
"......@@@.....+ ",
".....@###@....+ ",
"....@$###$@...+ ",
"....@%$$$%@..++ ",
"&++++@%%%@++++& ",
" &&&@%*=-%@&&&  ",
" ...@%*=-%@...  ",
"....@%===%@...+ ",
".....@%%%@....+ ",
"......@@@.....+ ",
"......+ ......+ ",
".....++ .....++ ",
"&+++++& &+++++& ",
" &&&&&   &&&&&  "};
