/* XPM */
static char *b4139b53a35a4280d76e8de166e915e94rtwSC9Kyk63B26y[] = {
/* columns rows colors chars-per-pixel */
"64 64 229 2 ",
"   c #0E0B0B",
".  c #090605",
"X  c #140C0B",
"o  c #1B0D0B",
"O  c #160806",
"+  c #141414",
"@  c #1C1314",
"#  c #1B191B",
"$  c #140F0F",
"%  c #230D0A",
"&  c #28140E",
"*  c #30190E",
"=  c #37150C",
"-  c #231312",
";  c #2B1514",
":  c #2C1915",
">  c #241A1A",
",  c #2B1B1A",
"<  c #331D1A",
"1  c #371D18",
"2  c #34201E",
"3  c #3B221E",
"4  c #3E2217",
"5  c #292525",
"6  c #352322",
"7  c #3C2422",
"8  c #38282A",
"9  c #343336",
"0  c #3A3233",
"q  c #3B3B3D",
"w  c #373A3C",
"e  c #372F30",
"r  c #442419",
"t  c #542B19",
"y  c #5B301D",
"u  c #722E1A",
"i  c #69301C",
"p  c #422522",
"a  c #442C2B",
"s  c #4A2D2B",
"d  c #462926",
"f  c #522D29",
"g  c #4D312E",
"h  c #43312F",
"j  c #53312E",
"k  c #5B332F",
"l  c #412E30",
"z  c #4B3231",
"x  c #46383A",
"c  c #543431",
"v  c #5A3533",
"b  c #5A3936",
"n  c #533B3D",
"m  c #5D3C39",
"M  c #563835",
"N  c #6D2E22",
"B  c #6C3525",
"V  c #763925",
"C  c #633A37",
"Z  c #643D3A",
"A  c #6A3E3B",
"S  c #623834",
"D  c #471E12",
"F  c #255C00",
"G  c #285F00",
"H  c #246300",
"J  c #32640A",
"K  c #397305",
"L  c #3A6919",
"P  c #3A7214",
"I  c #7D4229",
"U  c #65433E",
"Y  c #6C423E",
"T  c #76433D",
"R  c #446C27",
"E  c #4E7733",
"W  c #557A3B",
"Q  c #517737",
"!  c #3A3F40",
"~  c #4B3E44",
"^  c #533E44",
"/  c #593F43",
"(  c #523E48",
")  c #3D4244",
"_  c #484748",
"`  c #5C4143",
"'  c #564149",
"]  c #5B444B",
"[  c #514647",
"{  c #5F4C53",
"}  c #535454",
"|  c #5C5A5A",
" . c #595657",
".. c #644443",
"X. c #6C4643",
"o. c #6C4846",
"O. c #65464B",
"+. c #654A4E",
"@. c #6D4E4C",
"#. c #6C474A",
"$. c #724642",
"%. c #744A46",
"&. c #7B4B46",
"*. c #754C4B",
"=. c #7D4F4A",
"-. c #7B4541",
";. c #7F504B",
":. c #72524F",
">. c #634D53",
",. c #6C4C51",
"<. c #784E50",
"1. c #754F52",
"2. c #6B5156",
"3. c #6B585E",
"4. c #745355",
"5. c #7B5553",
"6. c #70595F",
"7. c #7C5A57",
"8. c #68514F",
"9. c #5C605D",
"0. c #5C5C61",
"q. c #635F66",
"w. c #66666D",
"e. c #6A6A6B",
"r. c #636565",
"t. c #77756F",
"y. c #6C6D72",
"u. c #737375",
"i. c #797979",
"p. c #6C736E",
"a. c #813A22",
"s. c #85452C",
"d. c #934A2D",
"f. c #944D32",
"g. c #9D5435",
"h. c #955138",
"j. c #8B4834",
"k. c #A65A38",
"l. c #A75B39",
"z. c #B0603D",
"x. c #AD603B",
"c. c #814F4A",
"v. c #834D43",
"b. c #81504B",
"n. c #81524D",
"m. c #83524D",
"M. c #89544E",
"N. c #8B5044",
"B. c #945644",
"V. c #865551",
"C. c #8C5651",
"Z. c #825956",
"A. c #865B57",
"S. c #865B57",
"D. c #895C56",
"F. c #8B5A55",
"G. c #895C58",
"H. c #905752",
"J. c #935954",
"K. c #9A5C56",
"L. c #995E59",
"P. c #9E6258",
"I. c #A1635A",
"U. c #8D6763",
"Y. c #976B6A",
"T. c #967978",
"R. c #897977",
"E. c #A67368",
"W. c #578636",
"Q. c #61913E",
"!. c #5F8146",
"~. c #638A4C",
"^. c #6B8B55",
"/. c #6E9556",
"(. c #799665",
"). c #7D8E77",
"_. c #7CA367",
"`. c #859C78",
"'. c #819F6C",
"]. c #A9827A",
"[. c #8BA67B",
"{. c #8DB376",
"}. c #85A86E",
"|. c #797E81",
" X c #7E8281",
".X c #888787",
"XX c #928385",
"oX c #8B9789",
"OX c #99999A",
"+X c #8F9391",
"@X c #A89897",
"#X c #B5999B",
"$X c #AD8F8B",
"%X c #95AB88",
"&X c #99B08D",
"*X c #9BAA93",
"=X c #91AE86",
"-X c #ABA09E",
";X c #A5B99A",
":X c #BCA39E",
">X c #9B9DA2",
",X c #9FA0A3",
"<X c #A6A8A9",
"1X c #B5A8A7",
"2X c #ABB4A8",
"3X c #ADB1B2",
"4X c #BBBEBC",
"5X c #B0B4AC",
"6X c #C8BCBC",
"7X c #B3C8A8",
"8X c #BCC6B7",
"9X c #B0C7A3",
"0X c #AAC19B",
"qX c #C2CCBD",
"wX c #C8D3BF",
"eX c #BEC4C4",
"rX c #C2C6C2",
"tX c #C5CAC3",
"yX c #CCCAC8",
"uX c #CAD5C4",
"iX c #D7DBD8",
"pX c #CFD3CC",
"aX c #DCE3D8",
"sX c #DEE3E0",
"dX c #E4E6E7",
"fX c #FEFEFE",
"gX c #F5F7F5",
"hX c #EEF2EE",
"jX c #E2E9DC",
/* pixels */
"6.6.2.4.5.Z.A.D.D.D.D.A.A.A.A.A.A.A.S.D.D.D.Z.7.4.2.2.>.>.>.>.>.>.>.2.4.5.Z.Z.D.D.D.G.A.A.A.A.A.A.A.S.D.D.S.Z.7.4.2.>.>.{ { 3.3.",
"6.6.2.4.5.Z.A.D.D.D.D.A.A.A.A.A.A.A.S.D.D.D.Z.7.4.2.2.>.>.>.>.>.>.>.2.4.5.Z.Z.D.D.D.G.A.A.A.A.A.A.A.S.D.D.S.Z.7.4.2.>.>.{ { 3.3.",
"2.2.+.+.*.*.;.n.n.n.n.n.n.n.n.n.n.n.;.n.n.n.;.:.*.,.+.O.] ] ] ] ] ] +.+.*.*.;.n.n.n.n.n.n.n.n.n.n.n.n.n.n.n.;.*.@.+.O.] ] ' >.>.",
"O.O.O.#.*.*.=.;.b.;.=.=.=.=.=.=.=.=.=.=.=.=.=.;.:.<.1.,.>.] ] ] O.+.@.*.*.=.=.=.=.=.=.=.=.=.=.=.=.=.;.c.=.;.=.*.*.*.+.O.] ] ' ' ",
"#.#.*.*.*.=.=.=.=.=.=.=.=.=.=.=.=.=.=.=.=.=.n.n.V.V.Z.4.,.+.] ] +.@.*.*.=.=.;.=.=.=.=.=.=.=.=.=.=.=.=.=.=.=.;.n.;.;.*.*.+.] ] ] ",
"*.*.*.=.=.=.=.=.=.=.=.=.=.=.=.=.=.=.=.=.=.=.n.M.V.V.V.<.+.] ] ] O.#.*.=.=.;.=.;.=.=.=.=.=.=.=.=.=.=.=.=.=.=.b.m.M.V.V.5.*.O.] ] ",
"Z.Z.=.=.=.=.=.=.=.=.=.=.=.=.=.=.=.=.;.b.n.n.m.m.b.=.%.../ ^ x x n m ..$.&.=.n.n.n.n.;.=.=.=.=.=.=.=.=.=.=.=.b.M.C.H.C.V.*.O.>.>.",
"D.D.n.b.=.=.=.=.=.=.=.=.=.=.=.=.=.=.n.m.M.M.m.=.$.Z b z l 8 8 8 8 a z m X.=.m.V.M.n.b.=.=.=.=.=.=.=.=.=.=.=.b.M.H.J.J.V.<.+.>.>.",
"D.D.n.b.;.=.=.=.=.=.=.=.=.=.=.=.=.=.n.V.V.V.c.$.b s 6 , > # # # # > 2 s Z %.n.V.V.M.n.=.=.=.=.=.=.=.=.=.=.=.b.M.H.J.J.V.<.+.>.>.",
"D.D.n.;.=.=.=.=.=.=.=.=.=.=.=.=.=.=.n.M.M.n.%.Z s < @ o X X X X X X - 6 j U =.m.V.M.n.=.=.=.=.=.=.=.=.=.=.=.b.M.H.J.J.V.*.O.>.>.",
"D.D.n.=.=.=.=.=.=.=.=.=.=.=.;.n.n.n.n.n.=.%.Z g 3 - o o o X X X X X o , p c Y %.;.n.n.n.n.n.;.=.=.=.=.=.=.=.b.M.H.H.H.V.*.O.>.>.",
"A.A.n.=.=.=.=.=.=.=.=.=.=.=.n.M.V.M.n.*.X.b s 7 < : & * * * * * * * * : 3 p c Z $.*.m.V.M.n.b.=.=.=.=.=.=.=.b.M.C.H.C.V.<.O.>.>.",
"A.A.n.=.=.=.=.=.=.=.=.=.=.=.n.V.V.M.=.X.c 8 2 < 4 r r t y t t y t t r 4 1 < 6 a m %.n.V.V.M.n.=.=.=.=.=.=.=.b.M.C.H.H.V.*.O.>.>.",
"A.A.n.=.=.=.=.=.=.=.=.=.=.=.n.M.V.n.$.M 7 : - : r y V I s.I I I I I B t 1 ; - < s Z &.m.V.M.n.=.=.=.=.=.=.=.b.M.C.H.H.V.*.O.>.>.",
"A.A.n.=.=.=.=.=.=.=.=.;.;.=.n.n.=.%.m d : o o * t V d.g.k.g.g.g.k.f.s.i r & o - 2 c Y &.;.n.b.;.;.;.=.=.=.=.b.M.C.H.C.V.*.O.>.>.",
"A.A.n.=.=.=.=.=.=.=.b.n.n.=.=.%.X.b s < % o % = y s.g.l.z.l.l.l.z.k.f.V t = % o ; 7 c Z $.*.=.b.n.n.;.=.=.=.b.m.C.H.H.V.*.O.>.>.",
"A.A.n.=.=.=.=.=.=.;.n.n.n.;.%.U M d < - % % = t B d.k.x.z.z.x.z.z.l.g.s.i D = % % ; 7 g m X.=.n.m.n.;.=.=.=.;.m.C.J.H.V.*.O.>.>.",
"A.A.n.=.=.=.=.=.=.;.n.M.M.;.$.b 8 , @ o ; 1 f B s.f.k.k.k.k.k.k.k.k.g.j.V B r 1 - o - 2 s U %.n.M.m.;.=.=.=.b.M.C.J.H.V.*.O.>.>.",
"S.S.n.=.=.=.=.=.=.;.n.V.V.=.Y s , X   @ 7 b -.N.B.h.f.d.d.d.d.d.d.d.f.h.B.v.Y g , X   @ 6 b %.n.M.M.b.=.=.;.n.M.H.J.J.V.*.O.>.>.",
"G.G.n.=.=.=.=.=.=.=.n.V.V.=.Z p @ . . 5 n 7.Y.E.I.h.s.a.V a.a.a.a.a.j.B.I.E.U.8.0 + .   : g $.n.V.M.b.=.;.n.M.H.J.J.J.V.<.O.>.>.",
"G.G.n.=.=.=.=.=.=.=.n.V.V.=.Z 7 o .   9 | T.$X$XE.B.V u u u u u u V j.P.].$X$Xt._ # . . - g $.n.M.M.n.=.n.M.C.J.K.K.J.V.*.O.>.>.",
"D.D.n.=.=.=.=.=.=.;.n.V.V.=.Z p -   + w e.+X1X#X].J.T B N B N N N V v.Y.$X:X-X.X} 5   O : j $.n.V.M.n.n.M.C.H.K.K.K.J.V.*.O.>.>.",
"Z.Z.;.=.b.b.n.n.n.m.M.V.V.m.Y f < ; 5 _ e.+X-X@X].U.c.T T T -.T T &.D.T.$X-X@X.X| 9 > : p S &.M.V.V.M.M.C.H.K.K.K.J.C.V.*.O.>.>.",
"5.5.=.=.b.m.M.V.V.V.C.C.H.V.&.A j s h [ | u..X.XT.R.U.U.U.Y.Y.Y.Y.Y.T.T.XX.Xi.e.} x a s v T b.V.C.C.C.C.J.J.K.K.J.C.m.=.#.] >.>.",
"5.5.%.&.b.M.C.H.H.H.H.J.J.H.M.c.$.A m n [ } | e.i.XX$X$X@X#X#X#X#X#X$XXXi.w.| [ [ m Z Y -.c.C.H.J.H.J.J.K.K.K.J.M.b.&.X...' >.>.",
":.:.o.%.;.M.H.J.J.J.J.J.J.J.H.C.M.=.Y M h 0 q  .i.OX1X6X6X6X6X6XrX6X1X.Xe._ 0 0 z Z $.b.M.H.H.J.J.J.J.J.K.K.J.C.b.%.X...' / >.>.",
"@.@...o.=.m.C.H.H.H.C.C.H.C.H.H.C.b.Y j 7 5 9  . X<XyXiXiXpXyXyXuXqX5XoXr._ 5 6 d C &.M.C.H.C.C.C.C.H.H.H.H.C.n.*.X...` ^ / { { ",
"+.+...X.*.=.n.m.m.m.m.m.m.m.b.c.&.$.Z g a 0 _ y.OXeXiXsXiXtX8X7X7X7X;XoXp.} q 0 z b Y -.=.b.n.m.m.m.m.m.m.m.b.*.X...` ^ ^ ^ { { ",
"+.+.` ..X.%.*.*.&.*.=.=.=.*.$.Z b c g z [  .u.OX4XiXdXaXuX9X&X=X{.=X=X=X).t.r.{ ^ c c v C Y %.*.=.=.*.&.*.*.%.X...' ^ ^ ^ ^ { { ",
">.>.' ` ....X.X.X.X.X.o.o.X.m s 7 < 6 x | i.<XyXsXhXhXiX7X[./.~.~./._.[.%X*X+Xu. .h 6 < p c U X.o.o.X.X.X.X.....` / ^ ^ ^ ^ >.>.",
">.>.' / ` ....U U ....o.o...c 2 - X # q e.OXpXgXfXfXgXuX;X(.E L P W./.{.0X8X3X+Xq.9 @ o ; p b ..o.X...U U U ..` / / ^ ^ ^ ^ >.>.",
"{ { ' / ` ....U U ..X.o.o...g : O . + w u.3XdXfXfXfXfXuX&X^.L G H K Q.{.7XwXrX>Xw.9 $ . o 7 b X.o.o...U U ....` / ^ ( ( ^ ( { { ",
"{ { ' ' ....X.X.X.X.%.*.*.X.c < O . + q u.3XdXfXfXfXfXuX&X~.L F H K Q.{.7XuXtX>Xw.9   . o p m %.*.*.o.X.X.X.X...' / ^ ( ( ^ { { ",
">.>.] ] ..o.%.%.%.%.=.;.;.%.b 1 o . + q u.3XdXfXfXfXgXuX%X~.L G H K Q.{.7XuXrX>Xw.9 $ . - d Y =.;.*.*.%.%.%.%.X...' ^ ^ ^ ^ { { ",
">.>.] O.#.*.=.=.=.=.n.M.M.=.Z 3 o   + ! u.3XiXfXgXhXaX7X[.!.L G H K Q.{.9XwXrX>Xw.9 + O ; f X.n.M.n.b.=.=.=.=.*.#.O.] ' ' ( >.>.",
"2.2.O.#.*.=.;.b.b.n.m.V.V.b.Z r o   # ) i.3XiXhXjXuX7X=X^.Q L G G J W.}.9XwXrX>Xw.9 + O ; f $.M.V.V.n.b.b.b.;.=.*.#.#.O.] ' >.>.",
"4.4.*.*.=.=.;.b.b.n.M.V.V.b.Z r o . # _ |.3XiXaXwX;X[.^.W R J F F J W.}.9XwXrX,Xw.9 + O ; f $.V.C.V.m.b.b.b.n.n.;.*.*.@.O.] >.>.",
"7.7.*.=.=.=.b.b.b.n.m.V.V.b.A p - X # _ i.<XtXtX2X[.^.W R R L J J L W.'.;X8X4XOXw.9 + o : j $.M.V.V.n.c.=.;.n.m.M.V.V.*.@.O.>.>.",
"A.A.n.=.=.=.=.=.=.b.n.V.V.c.A s : @ 5 _ y.OX2X2X%X(.~.W W W Q E E W ^.`.*X2X<X.X0.9 > - 1 v $.m.V.M.b.=.=.=.b.M.C.H.C.V.*.O.>.>.",
"D.D.n.b.=.=.=.=.=.b.n.m.m.=.X.v p 2 6 x | u..XoX`.(.(.(.(.(.(.(.(.(.'.`.oXoX.Xe._ 0 6 3 s Z %.n.M.n.;.=.=.=.b.M.H.J.J.V.*.O.>.>.",
"D.D.n.b.;.=.=.=.=.=.b.n.n.=.%.A b g a h ~ } 9.p.).oX%X&X&X;X;X;X;X;X*XoX).e.| _ x a s c C Y =.n.n.n.;.=.=.=.b.M.H.J.J.V.<.+.>.>.",
"D.D.n.;.=.=.=.=.=.=.;.b.b.=.=.&.$.Y M a 8 e q } t.+X2X8X8X8XqXqXqX8X2XoXe._ 9 8 8 g m X.%.&.=.;.b.b.=.=.=.=.b.M.H.J.J.V.<.+.>.>.",
"D.D.n.=.=.=.=.=.=.=.=.=.=.=.n.n.n.&.Z s < > 5 _ r.+X3X8XrXrXrXrXtX4X<X X .9 > , 7 v X.=.n.n.b.=.=.=.=.=.=.=.b.M.H.J.H.V.*.O.>.>.",
"A.A.n.=.=.=.=.=.=.=.=.=.=.=.n.V.V.m.$.k 3 : , 0  .u.+X>X<X<X<X<X<XOX.Xe._ 8 : < d C &.V.V.M.n.=.=.=.=.=.=.=.b.M.C.J.H.V.*.O.>.>.",
"A.A.n.=.=.=.=.=.=.=.=.=.=.=.n.V.V.M.=.A f p 7 e ~ } r.y.u.y.y.u.u.e.0.[ x 8 7 d k T b.V.V.M.n.=.=.=.=.=.=.=.b.M.C.H.H.V.<.O.>.>.",
"A.A.n.=.=.=.=.=.=.=.=.=.=.=.n.m.M.m.b.-.A S j s 0 0 9 w q q q q q w 0 0 l g c C Y =.n.M.M.n.b.=.=.=.=.=.=.=.b.M.H.H.H.V.*.O.>.>.",
"A.A.n.=.=.=.=.=.=.=.=.=.=.=.b.b.n.b.n.n.=.%.Y c p , @ @ @ + + + @ @ > 6 s m $.=.b.n.n.n.n.;.=.=.=.=.=.=.=.=.b.M.C.H.H.V.*.O.>.>.",
"A.A.n.=.=.=.=.=.=.=.=.=.=.=.=.=.=.=.n.V.V.m.&.Z s < - o X X     X O - 3 c X.=.V.V.M.n.=.=.=.=.=.=.=.=.=.=.=.b.m.C.H.C.V.*.O.>.>.",
"A.A.n.=.=.=.=.=.=.=.=.=.=.=.=.=.=.=.n.V.V.V.=.$.S s 1 < ; - @ @ - ; < s C %.m.V.V.M.n.=.=.=.=.=.=.=.=.=.=.=.;.m.C.H.C.V.*.O.>.>.",
"A.A.n.=.=.=.=.=.=.=.=.=.=.=.=.=.=.=.n.n.M.M.n.=.$.A S j s 8 8 8 a s j Z Y =.n.M.M.n.b.=.=.=.=.=.=.=.=.=.=.=.b.M.C.H.C.V.*.O.>.>.",
"D.D.n.=.=.=.=.=.=.=.=.=.=.=.=.=.=.=.=.;.b.n.m.M.M.M.c.*.../ n n m ..$.&.=.c.b.b.b.;.=.=.=.=.=.=.=.=.=.=.=.;.n.M.H.J.J.V.*.O.>.>.",
"G.G.n.=.=.=.=.=.=.=.=.=.=.=.=.=.=.=.=.=.=.n.M.H.K.L.L.F.<.+.O.O.@.*.n.m.m.b.=.=.=.=.=.=.=.=.=.=.=.=.=.=.=.n.M.C.J.K.J.V.<.O.>.>.",
"G.G.n.=.=.=.=.=.=.=.=.=.=.=.=.=.=.=.=.=.n.M.H.K.P.I.L.G.5.,.+.+.@.5.M.M.m.b.=.=.=.=.=.=.=.=.=.=.=.=.=.=.n.m.C.H.K.K.J.F.<.O.>.>.",
"S.S.n.=.=.=.=.=.=.=.=.=.=.=.=.=.=.=.=.n.m.C.J.K.P.P.L.F.4.+.O.O.@.*.n.M.m.b.=.=.=.=.=.=.=.=.=.=.=.=.=.n.m.V.H.K.K.K.J.V.*.O.>.>.",
"A.A.;.=.;.b.n.n.n.n.n.n.n.n.n.;.b.n.n.M.C.H.K.K.K.J.C.5.@.O.] ] O.*.=.b.b.b.n.n.n.n.n.n.n.n.n.;.;.n.m.M.C.H.J.K.K.J.C.V.*.O.>.>.",
"Z.Z.=.=.b.m.M.M.M.M.M.M.M.M.M.m.m.M.V.C.J.J.K.K.J.C.n.*.O.] ' ' ..o.%.=.b.m.M.M.M.M.M.M.M.M.M.m.m.M.C.C.J.J.K.K.J.C.m.*.#.O.>.>.",
"5.5.*.=.b.M.C.H.H.H.C.C.C.C.C.C.C.C.H.J.K.K.K.J.M.b.*.o...' ' ' ` ..%.&.b.M.C.H.H.H.C.C.C.C.C.C.C.C.H.J.K.K.K.J.C.m.=.o...' >.>.",
":.:.o.%.b.M.H.J.J.J.H.H.H.H.H.H.H.H.J.J.K.K.J.C.b.%.X...' / / / / ` X.%.=.M.H.J.J.J.J.H.H.H.H.H.H.H.J.J.K.K.J.C.b.&.X...` / { { ",
"o.o...%.=.M.C.J.J.H.H.H.H.H.H.H.H.H.H.J.J.H.C.n.*.X.../ ^ ^ ^ ^ ^ ` ..X.=.m.C.H.J.H.H.H.H.H.H.H.H.H.H.J.J.J.C.m.=.X...` ^ / ] ] ",
"` ` ` X.*.;.m.V.C.V.M.M.M.M.M.M.M.M.V.V.V.M.n.=.X.../ ^ ^ ^ ^ ^ ^ ^ ` X.*.=.m.V.C.M.V.M.M.M.M.M.M.M.V.V.V.M.n.=.%...` ^ ^ ^ / / ",
"/ / ` ..X.*.=.=.=.=.=.=.=.=.=.=.=.=.=.=.=.=.*.X...` ^ ^ ^ ^ ^ ^ ^ ^ ` ..X.*.=.=.=.=.=.=.=.=.=.=.=.=.=.=.=.=.*.o...` ^ ^ ^ ^ ^ ^ ",
"] ] / ` ..X.X.X.X.X.X.X.X.X.X.X.X.X.X.X.X.X.X...` / ^ ^ ^ ^ ^ ^ ^ / / ` ....X.X.X.X.X.X.X.X.X.X.X.X.X.X.X.X.X...` ` ^ ^ ^ ^ ] ] ",
"3.3.>.+.>.@.@.@.@.@.@.@.@.@.@.@.@.@.@.@.@.@.@.+.>.>.{ { { { >.{ { >.>.+.>.@.@.@.@.@.@.@.@.@.@.@.@.@.@.@.@.@.@.@.>.>.>.{ { { 3.3.",
"3.3.>.>.>.@.@.@.@.@.@.@.@.@.@.@.@.@.@.@.@.@.@.+.>.>.{ { { { >.{ { >.>.+.>.@.@.@.@.@.@.@.@.@.@.@.@.@.@.@.@.@.@.@.>.>.>.{ { { 3.3."
};
