/* XPM */
static char *e516fa56d55d4642a42c594ba91c71aaZZpobOG1q5N3CSms[] = {
/* columns rows colors chars-per-pixel */
"64 64 168 2 ",
"   c #060101",
".  c #0B0405",
"X  c #0D0708",
"o  c #0E0A0C",
"O  c #120B0E",
"+  c #190B0E",
"@  c #0E0C10",
"#  c #140E11",
"$  c #1B0F12",
"%  c #0D1116",
"&  c #0F131A",
"*  c #161114",
"=  c #1A1216",
"-  c #12151C",
";  c #1C1419",
":  c #1E191F",
">  c #211216",
",  c #23161B",
"<  c #22181E",
"1  c #29191F",
"2  c #131821",
"3  c #1D1B24",
"4  c #1B1E28",
"5  c #251B22",
"6  c #2B1C23",
"7  c #2C1F28",
"8  c #311E25",
"9  c #1F222D",
"0  c #1F2937",
"q  c #2C2027",
"w  c #23222D",
"e  c #2E212A",
"r  c #33222C",
"t  c #39252E",
"y  c #252632",
"u  c #2B2632",
"i  c #242834",
"p  c #232D3B",
"a  c #2E2C39",
"s  c #352631",
"d  c #3A2731",
"f  c #352833",
"g  c #3C2934",
"h  c #322E3B",
"j  c #3D2C39",
"k  c #25303F",
"l  c #422B35",
"z  c #422D3A",
"x  c #45303E",
"c  c #4A303D",
"v  c #263241",
"b  c #2A3445",
"n  c #343241",
"m  c #3B3544",
"M  c #3C3847",
"N  c #323748",
"B  c #333B4D",
"V  c #323E52",
"C  c #393F53",
"Z  c #443341",
"A  c #4B3644",
"S  c #4D3846",
"D  c #433C4D",
"F  c #4A3A4A",
"G  c #523D4D",
"H  c #553F51",
"J  c #354156",
"K  c #3C4156",
"L  c #364459",
"P  c #39465B",
"I  c #3C495E",
"U  c #3D4C63",
"Y  c #3F4F68",
"T  c #3D5067",
"R  c #424256",
"E  c #4B4253",
"W  c #45465C",
"Q  c #4E4659",
"!  c #46485E",
"~  c #494A5F",
"^  c #544153",
"/  c #524659",
"(  c #5B4A5F",
")  c #424E63",
"_  c #4C4C63",
"`  c #414F68",
"'  c #504E66",
"]  c #5F4F65",
"[  c #445063",
"{  c #485367",
"}  c #44536B",
"|  c #49556C",
" . c #4B596E",
".. c #54536C",
"X. c #58566F",
"o. c #515A6D",
"O. c #465671",
"+. c #495771",
"@. c #475972",
"#. c #4C5B74",
"$. c #4D5D79",
"%. c #555771",
"&. c #5C5771",
"*. c #535C76",
"=. c #525E79",
"-. c #615169",
";. c #605B75",
":. c #645E79",
">. c #4F617E",
",. c #516077",
"<. c #52627D",
"1. c #58617E",
"2. c #5A687D",
"3. c #66607B",
"4. c #4F6281",
"5. c #536582",
"6. c #5B6483",
"7. c #556986",
"8. c #5B6A84",
"9. c #546788",
"0. c #5C6788",
"q. c #566A8A",
"w. c #5A6D8C",
"e. c #5D708F",
"r. c #5B6F90",
"t. c #5E7294",
"y. c #5F7599",
"u. c #5F789D",
"i. c #616786",
"p. c #616788",
"a. c #646A8B",
"s. c #61708A",
"d. c #606E91",
"f. c #617593",
"g. c #607395",
"h. c #607594",
"j. c #627696",
"k. c #687995",
"l. c #61769A",
"z. c #657A9A",
"x. c #64799D",
"c. c #657B9D",
"v. c #677C9D",
"b. c #677C9E",
"n. c #687D9F",
"m. c #697E9F",
"M. c #5F7BA0",
"N. c #677CA0",
"B. c #657DA2",
"V. c #697EA1",
"C. c #697FA2",
"Z. c #6A7FA2",
"A. c #6F819E",
"S. c #6781A6",
"D. c #6C81A3",
"F. c #6C81A4",
"G. c #6D83A6",
"H. c #6E83A6",
"J. c #6C84A9",
"K. c #6F85A8",
"L. c #6E86AA",
"P. c #7185A5",
"I. c #7187AC",
"U. c #7388AA",
"Y. c #7288AD",
"T. c #788CAD",
"R. c #7B90B1",
"E. c #7D92B3",
/* pixels */
"2.2.*. .{ [ [ ) ) ) [ [ [ [ [ [ [ [ [ [ [ [ [ [ [ [ ) ) ) [ [ {  . . . .{ [ [ ) ) ) ) [ [ [ [ [ [ [ [ [ [ [ [ [ [ [ [ [ [ ) o.o.",
"2.2.*. .{ [ [ ) ) ) [ [ [ [ [ [ [ [ [ [ [ [ [ [ [ [ ) ) ) [ [ {  . . . .{ [ [ ) ) ) [ [ [ [ [ [ [ [ [ [ [ [ [ [ [ [ [ [ [ ) o.o.",
"*.*.#.{ [ ) ) U I U ) ) ) ) ) ) ) ) ) ) ) ) ) ) ) ) ) U I U ) ) } { { { } ` ) U I U ) ) ) ) ) ) ) ) ) ) ) ) ) ) ) ) ) U U U | | ",
"} } ` } } } { { { } } } } { } } } } } } } } } } } } } } { { { { } } ` ` } } { { { } { } } } } } } } } } } } } } } } } } { { } } ",
"} } } } #.$.<.5.5.5.5.5.5.5.5.5.5.5.5.5.<.5.5.5.5.5.5.5.5.<.<.#.O.} } } +.#.<.5.5.5.5.5.5.5.<.5.5.5.5.5.5.5.5.5.5.5.<.<.<.<.<.<.",
"} } } #.<.q.t.h.h.h.f.t.t.t.t.t.t.t.t.t.t.t.t.t.f.t.h.h.h.f.w.5.$.O.} @.$.7.e.h.h.h.f.f.f.t.t.t.t.t.t.t.t.t.t.t.t.t.t.t.t.t.f.f.",
"#.#.#.$.7.h.n.D.F.D.n.b.b.b.n.n.n.n.n.n.n.n.n.n.n.n.V.D.F.D.z.w.<.#.O.#.5.t.b.F.F.D.V.n.n.n.n.n.n.n.b.b.b.b.b.b.b.n.n.n.V.V.P.P.",
"*.*.#.<.e.n.K.Y.I.F.D.V.V.V.V.V.V.D.D.D.D.D.V.V.V.V.F.I.Y.I.D.h.7.#.#.$.q.z.F.Y.Y.I.F.D.V.D.V.V.V.V.V.V.V.V.V.V.V.V.F.F.K.I.R.R.",
",.,.#.<.t.V.K.Y.I.F.V.c.c.c.c.b.N.N.N.N.N.N.N.c.c.N.F.K.Y.Y.F.h.7.#.#.>.q.z.K.Y.Y.F.V.N.c.N.b.N.b.b.c.c.c.c.c.c.c.b.V.F.K.I.E.E.",
"*.*.#.>.w.z.F.F.D.c.h.t.t.t.t.t.t.t.t.t.t.t.t.t.t.t.l.N.F.F.V.f.5.#.#.#.7.h.D.F.F.c.l.t.t.t.t.t.t.t.t.t.t.t.t.t.t.t.h.c.V.F.T.T.",
"#.#. .#.5.w.h.h.h.t.w.q.q.q.q.q.q.9.5.5.5.5.5.5.5.5.q.r.g.h.t.q.>.} { #.<.q.h.h.t.w.9.5.5.5.5.7.q.q.q.q.q.q.q.9.5.5.7.q.w.g.A.A.",
"{ { ` } #.<.5.7.7.5.5.4.4.4.4.$.$.#.@.O.O.O.O.O.O.O.#.>.5.5.<.#.} ` U [ @.$.5.5.<.$.@.O.O.O.O.#.$.>.4.5.5.4.>.$.#.#.#.#.$.<.s.s.",
") ) I P U { } #.#.#.#.$.$.#.#.O.} ` U U U U U U U U U } } } } } U P P I U } } } } ` U U U U U ` } @.#.$.$.#.@.} } U U U } { <.<.",
") ) I L P I U U } } } O.O.} } Y U U P L L L L L L L P P I U U P P L J L P I U U I P P L L L P U U } } } O.} } } U I P P P I { { ",
"[ [ ! P P P I U U ` } } ` U U U I P P P P P P P P P P P P P P P P L L L P P P P P P P P P P P P I U U U } } ` U U U P P P P { { ",
"*.*. .{ [ ` ` ` ` ` U U I P P P U U ` } { } } ` ` U U U U U U U U U U U U U U U U ` ` } { } ` U I P P P I U U ` ` ` ` ` ` ` #.#.",
"8.8.6.<.<.$.#.#.} } U P J J J P `  .#.<.<.<.>.#.#.#.+.O.O.} O.O.O.@.#.@.O.O.O.#.#.#.$.<.<.<.#.} U P J J L I U } +.#.#.$.=.>.8.8.",
"z.z.k.f.t.w.q.5.#.} U L V V L U +.<.w.f.f.f.e.q.q.7.5.5.4.5.5.5.5.5.5.5.5.5.5.7.q.q.e.t.f.t.q.<.} U J V J P U @.>.7.q.e.t.e.k.k.",
"P.P.D.V.V.n.h.w.<.} U L V J I } <.w.z.V.D.D.V.c.x.l.y.t.t.t.t.t.t.y.y.t.t.t.t.l.x.b.V.F.F.V.l.q.$.} P J J L U #.5.e.z.n.V.n.P.P.",
"U.U.P.F.K.F.n.e.>.{ I J L U } $.q.h.V.F.K.K.K.K.F.V.V.N.N.N.N.N.N.N.V.N.N.N.N.V.F.K.I.Y.Y.K.V.t.7.#.} I L L U } 5.t.V.F.I.F.U.U.",
"P.P.D.F.K.F.n.w.$.` P L U } <.q.f.z.V.F.K.K.K.K.K.K.F.V.V.N.N.V.V.V.V.V.V.V.V.S.K.K.K.K.K.F.V.x.t.7.$.{ I L I } <.f.V.K.I.F.P.P.",
"V.V.n.V.F.F.c.w.#.` P U } <.w.h.c.c.c.c.N.N.N.N.c.c.x.x.x.x.x.x.c.c.x.x.x.x.x.c.c.N.N.N.N.N.N.c.z.h.q.$.} I I } >.e.n.F.F.b.V.V.",
"z.z.h.z.V.D.c.w.$.{ U } $.q.z.V.V.N.c.l.h.t.r.w.q.q.q.q.w.w.w.w.w.q.q.q.w.w.w.w.w.q.w.w.t.y.x.N.N.V.h.7.#.} ` } <.e.b.D.V.l.z.z.",
"h.h.h.l.b.V.n.f.5.#.+.#.5.t.N.F.F.V.c.g.w.6.=.#. .} } +.#.*.=.#.#. .}  .#.#.*.#. .} } #.4.r.u.V.F.F.c.e.5.#.+.#.7.f.n.V.c.y.h.h.",
"h.h.g.h.c.V.V.z.e.7.5.5.w.l.V.K.K.V.c.d.6.%._ R B N N C R ! ~ W K B B B K W W R B B B P } 5.y.V.K.F.N.y.w.5.5.7.f.z.V.V.c.t.h.h.",
"h.h.t.t.z.n.V.n.z.h.f.t.h.l.c.N.V.c.g.0.%._ D h w 4 4 y h m M m a w w y h m m h u w 9 k L $.r.N.V.V.c.l.h.t.t.h.z.n.V.b.l.t.h.h.",
"f.f.w.w.g.l.b.n.V.V.n.c.c.l.l.y.t.w.7.%._ F j 6 = O o = 5 r f e 5 * # = 7 s f r , # * 4 b ` 5.t.c.c.c.c.c.b.n.n.V.n.c.h.t.w.f.f.",
"w.w.7.7.q.w.h.z.V.F.F.F.V.c.t.q.4.@.{ ! D Z f 1 O     O ; 6 8 6 = X . O , r t 8 ; X . * i K +.6.r.g.l.c.V.F.F.D.n.z.t.w.q.5.w.w.",
"5.5.>.$.$.<.7.t.z.D.K.I.F.c.r.>.} L N n j g r , O     . $ 6 6 1 +     O 1 r t 8 ; .   o 3 n ! %.6.w.h.b.F.K.F.V.z.e.7.<.$.$.5.5.",
"=.=.#.} } #.$.7.t.n.K.I.K.c.q.O.J p 9 5 7 r r 1 $ .   X ; 6 8 1 $ . . O 6 g l t 1 O   . = u D _ %.0.g.N.K.K.F.z.t.5.$.@.} } =.=.",
"#.#.} U U } O.<.w.l.F.K.K.N.q.Y b 4 @ # > 6 r 6 = X X O 1 r r 6 ; O X = q z A j 6 # . . $ 6 Z Q %.6.g.N.K.F.V.h.q.$.} ` U U #.#.",
" . .{ U U U } #.7.t.N.K.K.c.7.U p & . . $ 6 r 7 ; O o * 5 r g r , # O ; r x S z q = X . $ 6 x / ..0.g.N.S.F.c.t.5.#.[ U U U  . .",
" . .} I I U ` #.5.t.c.K.K.c.9.U p %   . + 6 r 6 ; O o = 6 g j f 5 # O ; r x S x q = X X $ 8 Z / &.0.g.c.V.N.y.w.>.@.U U I I  . .",
" . .{ U U U } @.5.w.c.F.K.x.5.U p & . . $ 6 r 6 ; O o ; q z x g 6 * O ; r x S z q = X O > t S ( ;.i.g.c.N.x.y.q.>.@.` U I U  . .",
" . .{ U U U } #.5.q.l.V.S.x.7.U p - o O > 8 r q ; O O ; r x A z q = O ; r x A z q = X O 1 g G ] :.a.g.l.N.x.t.q.>.@.} U U U  . .",
"#.#.{ U U U } #.5.q.y.N.V.x.9.U k 2 o # 1 r f r < # O ; r Z S z q = O ; r x A z q = X O 1 z ^ -.3.a.g.l.x.y.t.q.>.#.} U U U #.#.",
"#.#.{ U U U } #.4.q.y.N.V.x.5.U k 2 @ $ 6 d z f 5 # O ; r Z S x q = O ; r x S z q = X O 1 z ^ -.3.a.g.l.u.y.t.q.>.#.} U U U #.#.",
"#.#.{ U U U } #.4.q.y.N.V.x.9.U p 2 @ = 6 g z g 5 * O ; r x S z q = O ; q z A z q = X O 1 z ^ -.3.a.g.l.u.y.t.q.>.#.} U U U #.#.",
"#.#.{ U U U } #.4.q.y.V.V.x.5.U p 2 @ ; 6 l x g 6 * O ; q z A j 6 * O ; q z A j 6 = X O 1 l H -.3.a.t.l.x.u.t.q.>.#.} U U U #.#.",
"#.#.{ U U ` } #.5.w.y.V.V.x.5.U k 2 @ = 6 g z g 5 * O = 6 g z g 6 * O = 7 g x g 5 * X O 1 l H -.3.a.t.l.x.u.t.q.4.#.} ` U U #.#.",
"#.#.} U U ` } #.5.w.y.N.V.c.q.U k 2 o # 1 t g f 5 # o * 6 f g f 5 # o = 6 f j f 5 # X O 1 z ^ -.3.a.g.l.N.u.t.q.4.#.} ` U U #.#.",
"#.#.{ U U U } #.5.w.l.N.V.c.q.U k 2 o O , r d r < # o # 5 r f r < # o # 5 r g r < # X O 6 z ^ -.3.a.g.l.x.u.t.q.>.#.} U U U #.#.",
" . .[ U I U ` @.>.q.l.N.V.x.q.U v 2 o O > r r r , # o # 5 r f r < # X # < q r 6 ; O X O 6 z ^ -.3.a.g.l.x.u.t.q.$.O.U U I U  . .",
"[ [ U L J L U } $.q.l.V.S.x.q.U v 2 o O , r d r < # o * 5 f g r 1 # X # , q r 6 ; O X # 6 z ^ -.3.a.g.l.M.u.t.7.$.} U L J L [ [ ",
") ) P V V J P ` $.q.y.V.S.x.q.U k 2 o # 1 t g f 5 # o = 6 g z d 6 # o O ; 6 r 6 ; O X # 6 z ^ -.3.a.g.x.N.u.t.5.#.U L V V V ! ! ",
"I I P V B V L ` $.q.y.V.S.x.5.U k - @ = 6 g z g 5 # O = q j x g 6 * o O ; 7 r 6 ; O X O 1 z ^ -.3.a.g.x.N.u.t.5.#.U L V B V I I ",
"[ [ I J J L I } $.q.l.V.K.x.5.U p - o $ 6 l x g 6 # X = 6 g x g 6 # X O > 6 r 6 ; O . O , g G ] :.a.g.u.N.u.t.5.#.` P J J J [ [ ",
"#.#.{ ` ` ` } #.5.q.l.V.V.x.5.U p % X + 1 l c g 6 O . O 6 d l t 1 O . O > r t 8 ; X   . $ r A ( &.p.g.l.N.u.t.q.>.#.} ` U ` #.*.",
"8.8.<.#.#.$.<.5.q.r.l.N.V.l.5.U 0 % . O 1 l c g 1 O   O , r d r > X   O 1 r g r > X     + 8 x / &.i.g.y.c.u.y.w.7.5.>.#.#.$.8.8.",
"k.k.f.w.w.w.w.e.t.t.l.N.N.l.5.U p - o $ 8 l A z 6 # X O , r d r > O X # 6 g z f 6 #     + 6 x / X.6.t.l.x.u.y.t.t.e.w.w.w.w.k.k.",
"P.P.n.c.b.b.c.z.l.l.l.c.N.l.5.T b 4 - < r Z S Z s : * ; 7 f g s 5 ; * 5 f Z F Z s 3 # # ; r Z / %.0.t.y.u.y.l.l.c.z.c.b.c.c.P.P.",
"P.P.D.D.F.F.F.V.c.l.l.c.c.y.q.O.J k i a M E / E m a y i h m M m a y y a M E / E M a w w u n R ' %.0.t.y.y.y.l.l.b.V.F.F.D.D.P.P.",
"P.P.D.V.F.F.F.D.b.x.l.l.l.t.w.>.} P C K ~ ......) K C K K ! _ ! K C C K _ ......_ K C C C W { %.6.w.t.t.y.y.l.x.V.F.F.F.F.V.P.P.",
"n.n.c.c.V.D.F.D.b.x.l.y.y.t.t.q.4.$.#.#.=.1.6.1.=.#.#.#.#.=.=.=.#.#.#.#.=.6.6.6.=.#.+.+.#.$.1.6.q.r.t.t.t.y.l.x.V.F.F.F.n.c.n.n.",
"z.z.h.h.c.V.F.V.n.x.l.t.t.t.t.t.t.r.w.r.r.t.t.t.r.r.w.w.r.r.r.r.w.w.w.r.t.t.t.t.r.r.w.w.w.r.r.t.t.t.y.t.t.y.l.c.V.D.F.V.z.y.z.z.",
"k.k.g.y.c.V.F.F.V.c.l.y.y.y.l.l.x.x.c.x.x.x.x.c.x.x.c.x.x.x.x.x.x.c.c.x.x.x.x.c.x.x.c.c.x.x.x.l.l.l.l.y.y.l.l.c.V.F.F.V.z.t.k.k.",
"h.h.f.y.c.V.F.F.V.c.l.y.y.y.l.c.N.N.V.V.N.N.N.N.N.V.V.V.N.N.N.N.V.V.V.V.N.N.N.N.N.V.V.V.V.N.N.x.c.l.l.y.y.l.c.c.V.F.F.V.z.t.h.h.",
"k.k.f.t.z.n.D.V.n.c.l.t.t.t.l.l.x.c.N.N.x.c.x.x.x.N.N.N.N.x.x.x.N.N.N.N.x.c.x.x.x.N.N.N.N.c.x.x.l.l.y.t.t.y.l.c.V.D.D.b.l.t.k.k.",
"e.e.w.r.h.z.b.c.x.h.t.t.r.t.t.t.t.t.t.t.t.t.t.t.t.t.y.t.t.t.t.t.t.y.t.t.t.t.t.t.t.t.y.y.t.t.t.t.t.t.t.t.t.t.t.l.c.c.c.x.t.w.e.e.",
"5.5.5.q.w.e.t.t.e.w.q.q.q.q.q.q.q.q.q.q.q.q.q.q.q.q.q.q.q.q.q.q.q.q.q.q.q.q.q.q.q.q.q.q.q.q.q.q.q.q.q.q.q.q.w.w.t.t.t.e.q.7.5.5.",
"$.$.$.>.5.5.5.5.5.5.4.>.>.>.>.>.>.>.>.>.>.>.>.>.>.>.>.>.>.>.>.>.>.>.>.>.>.>.>.>.>.>.>.>.>.>.>.>.>.>.>.>.>.>.<.5.5.5.5.5.<.>.$.$.",
"#.#.O.#.#.#.#.#.#.#.#.#.#.#.#.#.@.@.#.#.#.#.#.#.@.@.#.#.#.#.#.#.@.@.#.#.#.#.#.#.@.@.#.#.#.#.#.#.#.#.#.#.#.#.@.#.#.#.#.#.#.@.#.#.",
"2.2.,.#.#.#.#.#.#.#.#.#.#.#.#.#.#.#.#.#.#.#.#.#.#.#.#.#.#.#.#.#.#.#.#.#.#.#.#.#.#.#.#.#.#.#.#.#.#.#.#.#.#.#.#.#.#.#.#.#.#.#.2.2.",
"2.2.,.#.#.#.#.#.#.#.#.#.#.#.#.#.#.#.#.#.#.#.#.#.#.#.#.#.#.#.#.#.#.#.#.#.#.#.#.#.#.#.#.#.#.#.#.#.#.#.#.#.#.#.#.#.#.#.#.#.#.#.2.2."
};
