/* XPM */
static char *f9a4b529d4b743bb96c6d7ca8c3afe7akcVHqFbtd7bf69eW[] = {
/* columns rows colors chars-per-pixel */
"64 64 154 2 ",
"   c #64433F",
".  c #4F3D48",
"X  c #533E45",
"o  c #593F43",
"O  c #523E49",
"+  c #564046",
"@  c #5C4144",
"#  c #564149",
"$  c #5C4349",
"%  c #5F4B53",
"&  c #644442",
"*  c #6B4643",
"=  c #664947",
"-  c #6E4846",
";  c #64464A",
":  c #694749",
">  c #664B4D",
",  c #6D4D4C",
"<  c #744A46",
"1  c #784C46",
"2  c #744B4B",
"3  c #7D4F4A",
"4  c #72514E",
"5  c #7F504B",
"6  c #634D53",
"7  c #774E50",
"8  c #794E50",
"9  c #6C5155",
"0  c #6B585E",
"q  c #755455",
"w  c #7C5655",
"e  c #7D5756",
"r  c #7E5251",
"t  c #70595F",
"y  c #80504A",
"u  c #81504A",
"i  c #81514A",
"p  c #80504B",
"a  c #81504B",
"s  c #81514B",
"d  c #82504A",
"f  c #82514A",
"g  c #83514A",
"h  c #82514B",
"j  c #83514B",
"k  c #80514C",
"l  c #81514C",
"z  c #80504D",
"x  c #83514D",
"c  c #81524C",
"v  c #82524C",
"b  c #83524C",
"n  c #82524D",
"m  c #83524D",
"M  c #80514E",
"N  c #84524C",
"B  c #85524C",
"V  c #84524D",
"C  c #86534D",
"Z  c #87534D",
"A  c #86534E",
"S  c #87544E",
"D  c #87544F",
"F  c #82514C",
"G  c #88544E",
"H  c #89554E",
"J  c #88554F",
"K  c #89554F",
"L  c #8A544E",
"P  c #8B554E",
"I  c #8B554F",
"U  c #8A564F",
"Y  c #8D554F",
"T  c #8C564F",
"R  c #89554F",
"E  c #805151",
"W  c #805252",
"Q  c #815252",
"!  c #825252",
"~  c #825352",
"^  c #835352",
"/  c #845352",
"(  c #855352",
")  c #855452",
"_  c #855453",
"`  c #865453",
"'  c #875453",
"]  c #865553",
"[  c #875553",
"{  c #805756",
"}  c #845352",
"|  c #885550",
" . c #885551",
".. c #895551",
"X. c #885553",
"o. c #8A5753",
"O. c #8B5753",
"+. c #8D5550",
"@. c #8C5650",
"#. c #8E5650",
"$. c #8E5651",
"%. c #8F5751",
"&. c #8D5753",
"*. c #8F5752",
"=. c #8F5753",
"-. c #8F5754",
";. c #8D5651",
":. c #805856",
">. c #825956",
",. c #835A57",
"<. c #845955",
"1. c #855A57",
"2. c #865B57",
"3. c #875C56",
"4. c #855A57",
"5. c #8E5851",
"6. c #8E5853",
"7. c #885B57",
"8. c #8E5854",
"9. c #8F5954",
"0. c #895C56",
"q. c #8A5C56",
"w. c #8B5A54",
"e. c #895C58",
"r. c #895C58",
"t. c #905751",
"y. c #905752",
"u. c #915752",
"i. c #905753",
"p. c #905752",
"a. c #915852",
"s. c #915853",
"d. c #925852",
"f. c #925853",
"g. c #935853",
"h. c #935953",
"j. c #905854",
"k. c #915854",
"l. c #905855",
"z. c #925854",
"x. c #925954",
"c. c #935954",
"v. c #935955",
"b. c #945954",
"n. c #955954",
"m. c #945A54",
"M. c #955A54",
"N. c #965A54",
"B. c #965A55",
"V. c #975B56",
"C. c #935954",
"Z. c #995B56",
"A. c #9A5C56",
"S. c #995C56",
/* pixels */
"t t 9 q q :.2.0.0.0.7.2.2.2.2.2.2.2.0.0.0.7.:.w q 9 6 6 % % % % % 6 6 9 q { 2.0.0.0.2.2.2.2.2.2.2.2.3.0.0.7.:.w q 9 6 6 % % 0 0 ",
"t t 9 q q :.2.0.0.0.7.2.2.2.2.2.2.2.0.0.0.7.:.w q 9 6 6 % % % % % 6 6 9 q { 2.0.0.0.7.2.2.2.2.2.2.2.3.0.0.7.:.w q 9 6 6 % % 0 0 ",
"9 9 ; : 2 3 k k k k k k k k k k k k k k k k 5 2 : ; $ $ # # # # # $ $ : 2 3 5 k k k k k k k k k k k k k k k 5 2 : : ; $ # # 6 6 ",
"; ; ; : 2 1 3 5 y 5 3 3 3 3 3 3 3 3 5 3 3 3 3 3 2 2 : ; $ $ X + $ $ ; : 2 3 3 5 y 5 3 3 3 3 3 3 3 3 5 3 3 3 3 3 2 2 : ; $ $ # # ",
": : 2 2 1 3 3 3 3 3 3 3 3 3 3 3 3 3 3 3 3 3 5 k 5 3 2 , ; $ $ $ $ ; : < 3 3 3 3 3 3 3 3 3 3 3 3 3 3 3 3 3 3 y k k r 3 2 > $ $ $ ",
"3 3 1 3 3 3 3 3 3 3 3 3 3 3 3 3 3 3 3 3 3 3 y N o.o.! 2 : $ $ $ ; : 1 3 3 3 3 3 3 3 3 3 3 3 3 3 3 3 3 3 3 3 y N I o.) 8 , ; $ $ ",
"2.2.3 3 3 3 3 3 3 3 3 3 3 3 3 3 3 3 3 3 3 3 k I y.s.o.r , ; $ $ ; 2 3 y y y 3 3 3 3 3 3 3 3 3 3 3 3 3 3 3 3 y I &.z.5.! 2 ; 6 6 ",
"0.0.k y 3 3 3 3 3 3 3 3 3 3 3 3 3 3 3 3 3 3 N Y s.M.9.! 2 ; $ $ : < 3 y y y 3 3 3 3 3 3 3 3 3 3 3 3 3 3 3 3 y I s.M.z.) 7 : 6 6 ",
"0.0.k y 5 3 3 3 3 3 3 3 3 3 3 3 3 3 3 3 3 3 N &.s.M.z.! 2 ; $ $ : < 3 y y y y 3 3 3 3 3 3 3 3 3 3 3 3 3 3 3 y I s.M.z.o.8 : 6 6 ",
"0.0.k 5 3 3 3 3 3 3 3 3 3 3 3 3 3 3 3 3 3 3 N Y z.M.-.! 2 ; $ $ : 2 3 y y y 3 3 3 3 3 3 3 3 3 3 3 3 3 3 3 3 y I s.M.z.) 3 : 6 6 ",
"2.2.k 3 3 3 3 3 3 3 3 3 3 3 3 3 3 3 3 3 3 3 k I y.s.&.! , ; $ $ ; 2 3 y y y 3 3 3 3 3 3 3 3 3 3 3 3 3 3 3 3 y I y.s.y./ 2 ; 6 6 ",
"2.2.k 3 3 3 3 3 3 3 3 3 3 3 3 3 3 3 3 3 3 3 k I y.s.O.r , ; $ $ ; 2 3 y y y 3 3 3 3 3 3 3 3 3 3 3 3 3 3 3 3 y I &.s.&./ 7 ; 6 6 ",
"2.2.k 3 3 3 3 3 3 3 3 3 3 3 3 3 3 3 3 3 3 3 k I y.s.o.r , ; $ $ ; 2 3 y y y 3 3 3 3 3 3 3 3 3 3 3 3 3 3 3 3 y I &.s.&./ 2 ; 6 6 ",
"2.2.k 3 3 3 3 3 3 3 3 3 3 3 3 3 3 3 3 3 3 3 k I y.s.o.r , ; $ $ ; 2 3 y y y 3 3 3 3 3 3 3 3 3 3 3 3 3 3 3 3 y I &.s.&./ 2 ; 6 6 ",
"2.2.k 3 3 3 3 3 3 3 3 3 3 3 3 3 3 3 3 3 3 3 k I y.y.o.r , ; $ $ ; 2 3 y y y 3 3 3 3 3 3 3 3 3 3 3 3 3 3 3 3 y A 5.s.&./ 2 ; 6 6 ",
"2.2.k 3 3 3 3 3 3 3 3 3 3 3 3 3 3 3 3 3 3 3 y I &.y.o.r , ; $ $ ; 2 3 y y y 3 3 3 3 3 3 3 3 3 3 3 3 3 3 3 3 y N 5.s.&./ 2 ; 6 6 ",
"2.2.k 3 3 3 3 3 3 3 3 3 3 3 3 3 3 3 3 3 3 3 y I &.s.o.r , ; $ $ ; 2 3 y y y 3 3 3 3 3 3 3 3 3 3 3 3 3 3 3 3 y N 5.z.-./ 7 ; 6 6 ",
"2.2.k 3 3 3 3 3 3 3 3 3 3 3 3 3 3 3 3 3 3 3 k I y.s.o.r , ; $ $ ; 2 3 y y y 3 3 3 3 3 3 3 3 3 3 3 3 3 3 3 3 y I &.z.-./ 2 ; 6 6 ",
"3.3.k 3 3 3 3 3 3 3 3 3 3 3 3 3 3 3 3 3 3 y N &.s.M.9.! 2 ; $ $ : 2 3 y y y 3 3 3 3 3 3 3 3 3 3 3 3 3 3 3 y N &.s.M.z.) 2 ; 6 6 ",
"e.e.k 3 3 3 3 3 3 3 3 3 3 3 3 3 3 3 3 3 y N I s.M.M.z.! 2 ; $ $ : < 3 y y 5 3 3 3 3 3 3 3 3 3 3 3 3 3 3 y k I y.M.M.M.o.8 ; 6 6 ",
"e.e.k 3 3 3 3 3 3 3 3 3 3 3 3 3 3 3 3 y N I y.M.A.Z.z.! 2 ; $ $ : < 3 y y 5 3 3 3 3 3 3 3 3 3 3 3 3 3 5 k A &.M.A.A.z.) 2 ; 6 6 ",
"2.2.k 3 3 3 3 3 3 3 3 3 3 3 3 3 3 3 y k I &.h.A.A.M.&.r , ; $ $ ; 2 3 y y y 3 3 3 3 3 3 3 3 3 3 3 3 5 k A &.s.M.A.A.z./ 2 ; 6 6 ",
":.:.5 3 5 k k k k k k k k k k y y k N o.&.z.M.A.Z.s.) 3 : $ $ $ ; 2 3 3 y y k k k k k k k k k y y k N I &.z.M.A.Z.s.o.5 2 ; 6 6 ",
"e e 3 3 y N I o.&.o.I I I I I I I I &.s.M.Z.A.M.s.I 3 2 ; $ + $ & * < 3 y N I o.&.o.o.I I I I I I I &.s.M.M.A.Z.h.I k 1 : $ 6 6 ",
"q q < 1 y I &.z.z.s.y.y.y.y.&.&.&.y.s.M.A.A.M.s.I 3 < = $ $ + o @ * * 1 y I &.s.z.s.s.y.y.y.&.&.&.&.s.M.Z.A.A.s.Y y < * & $ 6 6 ",
"4 4 * < 5 o.s.z.M.M.s.s.s.s.s.s.s.s.M.M.V.M.s.I 3 < * @ o X X X o @ * < 3 I y.M.M.M.z.s.s.s.s.s.s.s.M.M.Z.M.M.&.y < * & $ + % 6 ",
", , * - 3 N &.s.s.y.&.&.&.&.&.&.&.&.&.s.s.&.I 5 < * @ o X X X X X o & - 1 N &.s.s.s.5.&.&.&.&.&.&.&.&.s.s.y.o.y < * & o X X % % ",
"> > & * 2 3 k N N N k k k k k k k k k N N k 3 2 * @ o X X X X X X X @ * < 3 k N N N k k k k k k k k N N N k 3 < * & o X X X % % ",
"> > $ & * < < 1 1 < < < < < < < < < < < < < < * & @ X X X X X X X X @ & = - < 1 1 1 < < < < < < < < < < < < < * & @ X X X X % % ",
"6 6 $ $ & * * * * * * * * * * * * * * * * * * & @ X X X X X X X X X X $ @ * * * * * * * * * * * * * * * * * * & @ o X X X X 6 6 ",
"6 6 # o @ &                                 & @ o X X X X O X O X X X o @ @                                 & @ o X X X X X 6 6 ",
"% % # X $ & &     * & & & & & & & & *     & & @ o X X O O O X O O X X X $ @ & *     & & & & & & & & *     & & @ o X . . X O % % ",
"% % # $ & = * * * * * * * * * * * * * * * * * & $ X X O X X X O O X X $ $ = * * * * * * * * * * * * * * * * * & $ X X . . O % % ",
"6 6 $ $ = - < < < < < < < < < < < < < < < < < * & $ X X X X X X O X # $ ; - < < < < < < < < < < < < < < < < < * & $ X X X X % % ",
"6 6 $ ; : < 3 3 3 3 3 3 3 3 3 3 3 3 3 3 3 3 1 2 : ; $ # O O O X X + $ ; : < 3 3 3 3 3 3 3 3 3 3 3 3 3 3 3 3 3 2 : ; $ $ # O 6 6 ",
"9 9 : : < 3 y y y y y y y y y y y y y y y y 3 3 2 : ; $ $ # O + $ $ ; : 2 3 3 y y y y y y y y y y y y y y y 5 3 1 2 : ; $ $ 6 6 ",
"q q 2 2 3 3 y y y y y y y y y y y y y y y y k k 5 3 2 : ; $ # # $ ; : 2 3 3 y y y y y y y y y y y y y y y y k k 5 3 2 , ; $ 6 6 ",
":.:.3 3 3 3 5 5 y y y y y y y y y y 5 3 3 y k N o.) ! 2 : $ $ $ ; : < 3 3 5 y y y y y y y y y y y y 5 3 3 y k N A ) ! 3 , ; 6 6 ",
"2.2.5 3 3 3 3 3 3 3 3 3 3 3 3 3 3 3 3 3 3 3 k I &.y.O.r , ; $ $ ; 2 3 5 y y 3 3 3 3 3 3 3 3 3 3 3 3 3 3 3 3 y I 5.&.&.! 2 ; 6 6 ",
"0.0.k 5 3 3 3 3 3 3 3 3 3 3 3 3 3 3 3 3 3 3 N Y s.M.-.! 2 ; $ $ : < 3 y y y 3 3 3 3 3 3 3 3 3 3 3 3 3 3 3 3 y I s.M.z.) 2 ; 6 6 ",
"0.0.k y 5 3 3 3 3 3 3 3 3 3 3 3 3 3 3 3 3 3 N &.z.M.z.! 2 ; $ $ : < y y y y 3 3 3 3 3 3 3 3 3 3 3 3 3 3 3 3 y I s.M.z.o.8 : 6 6 ",
"0.0.k 5 3 3 3 3 3 3 3 3 3 3 3 3 3 3 3 3 3 3 N Y s.M.-.! 2 ; $ $ : < 3 y y y 3 3 3 3 3 3 3 3 3 3 3 3 3 3 3 3 y I s.M.z.) 8 : 6 6 ",
"7.7.k 3 3 3 3 3 3 3 3 3 3 3 3 3 3 3 3 3 3 3 k Y y.s.5.! 2 ; $ $ ; 2 3 y y y 3 3 3 3 3 3 3 3 3 3 3 3 3 3 3 3 y I y.s.z./ 7 ; 6 6 ",
"2.2.k 3 3 3 3 3 3 3 3 3 3 3 3 3 3 3 3 3 3 3 k I y.s.o.r , ; $ $ ; 2 3 y y y 3 3 3 3 3 3 3 3 3 3 3 3 3 3 3 3 y I &.s.i./ 7 ; 6 6 ",
"2.2.k 3 3 3 3 3 3 3 3 3 3 3 3 3 3 3 3 3 3 3 k I y.s.o.r , ; $ $ ; 2 3 y y y 3 3 3 3 3 3 3 3 3 3 3 3 3 3 3 3 y I &.s.&./ 7 ; 6 6 ",
"2.2.k 3 3 3 3 3 3 3 3 3 3 3 3 3 3 3 3 3 3 3 k I y.s.o.r , ; $ $ ; 2 3 y y y 3 3 3 3 3 3 3 3 3 3 3 3 3 3 3 3 y I &.s.&./ 2 ; 6 6 ",
"2.2.k 3 3 3 3 3 3 3 3 3 3 3 3 3 3 3 3 3 3 3 k I y.s.o.r , ; $ $ ; 2 3 y y y 3 3 3 3 3 3 3 3 3 3 3 3 3 3 3 3 y A y.s.&./ 2 ; 6 6 ",
"2.2.k 3 3 3 3 3 3 3 3 3 3 3 3 3 3 3 3 3 3 3 y I &.s.o.r , ; $ $ ; 2 3 y y y 3 3 3 3 3 3 3 3 3 3 3 3 3 3 3 3 y Z 5.s.&./ 2 ; 6 6 ",
"2.2.k 3 3 3 3 3 3 3 3 3 3 3 3 3 3 3 3 3 3 3 y I &.s.o.r , ; $ $ ; 2 3 y y y 3 3 3 3 3 3 3 3 3 3 3 3 3 3 3 3 y N 5.s.&./ 2 ; 6 6 ",
"2.2.k 3 3 3 3 3 3 3 3 3 3 3 3 3 3 3 3 3 3 3 k I y.s.o.r , ; $ $ ; 2 3 y y y 3 3 3 3 3 3 3 3 3 3 3 3 3 3 3 3 y I &.s.&./ 2 ; 6 6 ",
"7.7.k 3 3 3 3 3 3 3 3 3 3 3 3 3 3 3 3 3 3 5 N &.s.M.9.! 2 ; $ $ : 2 3 y y y 3 3 3 3 3 3 3 3 3 3 3 3 3 3 3 5 N I s.M.z.) 2 ; 6 6 ",
"e.e.k 3 3 3 3 3 3 3 3 3 3 3 3 3 3 3 3 3 5 k I y.M.Z.9.! 2 ; $ $ : < 3 y y 5 3 3 3 3 3 3 3 3 3 3 3 3 3 3 3 k I &.M.M.z.) 7 ; 6 6 ",
"e.e.k 3 3 3 3 3 3 3 3 3 3 3 3 3 3 3 3 5 k A &.M.A.Z.z.! 2 ; $ $ : < 3 y y 5 3 3 3 3 3 3 3 3 3 3 3 3 3 5 k A &.M.A.A.z.) 7 ; 6 6 ",
"7.7.k 3 3 3 3 3 3 3 3 3 3 3 3 3 3 3 y k A &.s.Z.A.M.9.r , ; $ $ ; 2 3 y y y 3 3 3 3 3 3 3 3 3 3 3 3 5 k N &.s.M.A.A.z.) 2 ; 6 6 ",
"2.2.5 3 5 y k k k k k k k k k y y k N I &.z.M.A.Z.z.o.3 : $ $ $ ; 2 3 5 y y k k k k k k k k k y y k k A &.z.M.A.A.M.o.k 2 ; 6 6 ",
"{ { 3 3 y N I o.o.I I I I I A A A I &.y.M.M.A.Z.s.&.k 2 ; $ $ $ & * < 3 y N I I o.I I I I I A A A A o.&.z.M.A.A.h.&.k 1 : $ 6 6 ",
"q q < 3 y I 5.s.s.y.&.&.&.&.5.&.&.&.s.M.A.A.A.s.Y y < * $ $ + $ $ * < 1 y I &.s.s.s.&.&.&.&.5.&.&.5.s.M.Z.A.A.M.Y y 1 - = $ 6 6 ",
"4 4 * < y o.s.M.M.M.s.s.s.s.s.s.s.s.M.M.A.A.z.I y < * $ $ X X X o @ * < y I y.M.M.M.z.s.s.s.s.s.s.s.M.M.V.V.M.&.y < * & $ + % % ",
"= = * < 3 A &.z.z.s.y.&.5.&.&.&.&.&.s.M.M.s.&.k < * @ o X X X X X @ & - 3 A &.s.z.s.s.&.5.&.&.&.&.&.s.z.z.z.5.N 1 * & o X X $ $ ",
"@ @ @ * 1 5 A o.o.I A A A A A A A A I I I A k 1 * & o X X X X X X X @ * < 3 N I o.I A A A A A A A A I I I A k 3 - & o X X X X X ",
"o o @ & * < 3 3 3 3 3 3 3 3 3 3 3 3 3 3 3 3 < * * @ X X X X X X X X @ & * 2 1 3 3 3 3 3 3 3 3 3 3 3 3 3 3 3 < - = @ X X X X X X ",
"$ $ o $ & * * * * - - - - - - - - - - * * * * & @ o X X X X X X X X X @ & * * - * * - - - - - - - - - * * * * * @ o X X X X $ $ ",
"0 0 6 > 6 , , , , , , , , , , , , , , , , , , > 6 6 % % % 6 6 % % 6 6 > 6 , , , , , , , , , , , , , , , , , , , 6 6 % % % 6 0 0 ",
"0 0 6 6 6 , , , , , , , , , , , , , , , , , , > 6 > % % % % 6 % % 6 6 > 6 , , , , , , , , , , , , , , , , , , , 6 6 % % % 6 0 0 "
};
