/* XPM */
static char *_95da4130e794b01e23eeec934094277jJZlLrqpoUI8MSOM[] = {
/* columns rows colors chars-per-pixel */
"64 64 243 2 ",
"   c #030303",
".  c #0C0A0C",
"X  c #080507",
"o  c #140C0D",
"O  c #190A0B",
"+  c #0C0E10",
"@  c #170F11",
"#  c #0C1116",
"$  c #141214",
"%  c #1B1214",
"&  c #1D1619",
"*  c #1A191A",
"=  c #15181B",
"-  c #2C0A0D",
";  c #240506",
":  c #221314",
">  c #241A1A",
",  c #2B1B1C",
"<  c #281717",
"1  c #341D1B",
"2  c #3A1F1D",
"3  c #381418",
"4  c #310C10",
"5  c #3A211F",
"6  c #1A1E22",
"7  c #371C21",
"8  c #2A1F22",
"9  c #1E252A",
"0  c #1E2327",
"q  c #2C2325",
"w  c #23262A",
"e  c #24292C",
"r  c #272528",
"t  c #332424",
"y  c #3C2422",
"u  c #3C2A2A",
"i  c #36282A",
"p  c #2A2E34",
"a  c #252E32",
"s  c #352D32",
"d  c #2A3136",
"f  c #2A3339",
"g  c #383639",
"h  c #54070D",
"j  c #460D13",
"k  c #47171B",
"l  c #551418",
"z  c #49080C",
"x  c #6B151A",
"c  c #740F16",
"v  c #741D22",
"b  c #432C29",
"n  c #4B2D2B",
"m  c #462525",
"M  c #522D2B",
"N  c #5B2425",
"B  c #4B312E",
"V  c #55322F",
"C  c #443136",
"Z  c #4C3434",
"A  c #443339",
"S  c #4B363A",
"D  c #4C3A3E",
"F  c #533532",
"G  c #5B3532",
"H  c #543935",
"J  c #5C3A36",
"K  c #533A3B",
"L  c #5C3C39",
"P  c #503638",
"I  c #4E2F33",
"U  c #633D3A",
"Y  c #653936",
"T  c #783A39",
"R  c #712B2D",
"E  c #561F24",
"W  c #5B413F",
"Q  c #65413E",
"!  c #6C423E",
"~  c #72433E",
"^  c #74422B",
"/  c #3A3C43",
"(  c #483E44",
")  c #533E45",
"_  c #573E45",
"`  c #783C42",
"'  c #3A4349",
"]  c #3B4B52",
"[  c #3C5258",
"{  c #43454B",
"}  c #464548",
"|  c #534145",
" . c #5C4242",
".. c #554048",
"X. c #5B444A",
"o. c #5C484E",
"O. c #434C53",
"+. c #4B4B53",
"@. c #5E4B52",
"#. c #524D56",
"$. c #49535A",
"%. c #56555C",
"&. c #644543",
"*. c #6C4542",
"=. c #6E4845",
"-. c #62464B",
";. c #6C4C4C",
":. c #66494A",
">. c #734642",
",. c #734A45",
"<. c #7B4A45",
"1. c #744C4C",
"2. c #7D4F4A",
"3. c #784648",
"4. c #7C504C",
"5. c #73514E",
"6. c #634D53",
"7. c #6A4E52",
"8. c #6B555A",
"9. c #7C5552",
"0. c #745558",
"q. c #714A51",
"w. c #4A5B62",
"e. c #475A60",
"r. c #595B62",
"t. c #685A62",
"y. c #705C64",
"u. c #5B636A",
"i. c #5C7078",
"p. c #66666A",
"a. c #686B74",
"s. c #65747B",
"d. c #757579",
"f. c #776970",
"g. c #820D16",
"h. c #87161D",
"j. c #971A22",
"k. c #AA1923",
"l. c #8E3133",
"z. c #A82C35",
"x. c #B82B32",
"c. c #A7363A",
"v. c #B9333B",
"b. c #B4252D",
"n. c #CF1A28",
"m. c #C6222D",
"M. c #C43035",
"N. c #8E403F",
"B. c #B45135",
"V. c #A54D1C",
"C. c #CD5919",
"Z. c #CF5532",
"A. c #D96638",
"S. c #E06121",
"D. c #973E45",
"F. c #B33B43",
"G. c #834E49",
"H. c #884745",
"J. c #974448",
"K. c #83524D",
"L. c #89544F",
"P. c #835452",
"I. c #8C5651",
"U. c #855A55",
"Y. c #8A5B56",
"T. c #8B5D59",
"R. c #865B5A",
"E. c #935954",
"W. c #985C57",
"Q. c #9C5E59",
"!. c #925754",
"~. c #974F4F",
"^. c #A54548",
"/. c #AC4F53",
"(. c #946058",
"). c #A2615B",
"_. c #BB6852",
"`. c #945D66",
"'. c #946B72",
"]. c #A57071",
"[. c #A85B63",
"{. c #D06C56",
"}. c #DD5C64",
"|. c #CF6660",
" X c #B78071",
".X c #E08277",
"XX c #667A83",
"oX c #787B85",
"OX c #5F7881",
"+X c #907E88",
"@X c #C17D82",
"#X c #6E838C",
"$X c #77848B",
"%X c #788993",
"&X c #758C95",
"*X c #7D96A1",
"=X c #87858D",
"-X c #97868C",
";X c #888A95",
":X c #88939C",
">X c #94949A",
",X c #998C94",
"<X c #889BA5",
"1X c #949BA7",
"2X c #8BA3AD",
"3X c #87A0AA",
"4X c #93A2AD",
"5X c #9EA4A6",
"6X c #8CA7B1",
"7X c #93ACBA",
"8X c #97AAB5",
"9X c #95B2BD",
"0X c #9CB3BD",
"qX c #AAA8A8",
"wX c #B7B7B7",
"eX c #AAB0B4",
"rX c #B39092",
"tX c #F49295",
"yX c #CEB3B5",
"uX c #DF9D9B",
"iX c #9BB6C2",
"pX c #9CB8C3",
"aX c #A5BCC5",
"sX c #BCBCC1",
"dX c #ACC2CB",
"fX c #A7C3CF",
"gX c #B8CCD4",
"hX c #B1C5CD",
"jX c #C5D5DC",
"kX c #C6D8DF",
"lX c #DADBDB",
"zX c #C8C9CA",
"xX c #F3CFD1",
"cX c #CCDCE2",
"vX c #DFDFE0",
"bX c #DAE5EA",
"nX c #CEE0E8",
"mX c #E6E7E7",
"MX c #E2EDF2",
"NX c #EEF3F5",
"BX c #E7F2F8",
"VX c #F3F7F8",
"CX c #F0EBEB",
/* pixels */
"8.8.8.7.0.U.U.Y.Y.Y.Y.U.U.U.T.T.(.T.9.&.Z q * $ % & > < : < , t s ( o.7.0.R.T.T.T.T.T.T.T.T.T.T.R.U.U.Y.Y.Y.U.9.0.7.6.6.@.@.8.8.",
"8.8.8.7.0.U.U.Y.Y.Y.Y.U.U.U.T.T.(.T.9.&.Z q * $ % & > < : < , t s ( o.7.0.R.T.T.T.T.T.T.T.T.T.T.R.U.U.Y.Y.Y.U.9.0.7.6.6.@.@.8.8.",
"8.8.8.7.5.9.U.U.U.U.U.U.U.U.Y.T.T.Y.4.&.C q $ + @ % : : : : < q s D X.7.0.U.Y.Y.Y.Y.Y.Y.Y.Y.Y.U.U.U.U.U.U.U.P.9.5.7.6.@.@.@.8.8.",
":.:.-.:.1.1.2.K.K.4.2.2.2.2.K.L.I.K.,.H t % X X O - 3 j j j 4 3 7 u A ) &.1.L.I.I.I.L.L.L.L.L.K.K.K.4.2.2.2.2.1.1.;.-.X.X...X.X.",
":.:.:.1.1.1.2.2.2.2.2.2.2.2.K.L.L.K.=.P q $ . O 4 l x c c c x l k 7 i C L ;.K.I.E.I.I.P.P.P.L.K.K.K.4.2.2.2.2.4.2.2.1.;.-.X.....",
"1.1.1.1.1.1.2.2.2.2.2.2.2.2.K.L.L.K.=.P t % O - j x j.k.k.j.h.x k 3 < t A &.1.L.I.L.K.K.K.K.K.K.K.4.2.2.2.2.K.K.K.P.P.1.;.X.X.X.",
"P.P.P.2.2.2.2.2.2.2.2.2.2.2.K.K.L.K.=.K u > : 4 l c j.b.x.x.j.v k - o & t F ! >.<.>.>.! ! *.>.>.<.2.K.K.4.K.K.L.I.I.I.P.1.-.6.6.",
"Y.Y.U.K.2.2.2.2.2.2.2.2.2.2.K.K.K.K.,.Q Z u 2 k l c h.z.v.F.c.R k ;   X % 2 n V G V M M M M G Y ! <.K.K.K.K.K.L.!.E.E.P.1.-.6.6.",
"Y.Y.U.K.4.2.2.2.2.2.2.2.2.2.4.K.K.4.1.=.Q J M m l l x l.D.^.~.` m %     X O < 1 2 2 1 < < 1 y n U ,.K.P.P.K.K.L.E.E.E.P.1.-.6.6.",
"Y.Y.U.K.2.2.2.2.2.2.2.2.2.2.2.K.K.4.2.1.,.*.J M k 3 k G 3.R.`.0.S > X     . @ % : : @ @ @ % , y F *.2.K.L.K.K.L.E.E.E.P.1.-.6.6.",
"Y.Y.U.G.2.2.2.2.2.2.2.2.2.2.4.K.K.K.K.K.2.>.J n 2 , 8 A @.y.f.p.+.p * # # $ $ * * * = $ = = > i Z U >.1.2.K.K.L.E.E.I.P.1.-.6.6.",
"U.U.U.2.2.2.2.2.2.2.2.2.2.2.K.K.L.L.K.2.>.U F u t r p { r.a.d.a.r.O./ d d p d f d f d d f d d s A P L ! >.<.K.I.E.E.I.P.1.-.6.6.",
"U.U.U.2.2.2.2.2.2.2.2.2.2.2.K.L.I.L.K.>.Y n y t i g ' %.p.d.oXoXd.a.u.w.w.e.e.e.e.e.e.w.w.w.$.{ g s b M J ! G.I.E.E.I.P.1.-.6.6.",
"U.U.U.2.2.2.2.2.2.2.2.2.2.2.K.L.L.K.,.Y n y 8 q g +.r.a.oXoX=X=X%X%X%X#X#X#X#X#X#X#X#X&X&X#Xs.w.' s 8 y n U 2.I.W.E.E.P.1.-.6.6.",
"U.U.U.2.2.2.2.2.2.2.2.2.4.2.K.K.4.1.! F y , 8 s { u.d.=X=X=X=X;X:X<X2X2X2X2X3X3X3X3X6X7X8X6X&Xi.] r % : y G 2.E.W.W.E.P.1.-.6.6.",
"U.U.U.2.2.2.2.2.2.2.4.K.K.4.2.<.*.U F b t q p { r.oX;X>X>X:X;X:X1X4X8X0X9X9X9X9X9X9XpXaXaXiX<Xs.] 9 $ % 1 G <.E.W.W.E.P.1.-.6.6.",
"U.U.U.2.2.2.2.2.2.2.4.K.K.K.<.! J B u t i g { r.d.;X1X1X1X1X<X1X4X8X0XiXpXiXiXiXiXiXpXfXfXpX<XOX] 0 + @ 1 G <.E.Q.Q.E.P.1.-.6.6.",
"U.U.U.2.2.2.2.2.2.2.4.K.L.K.,.J n y , q s +.t.oX;X1X8X8X8X8X4X4X8X0XpXpXpXpXpXpXpXpXaXfXfXaX3XXX] 9 + @ 1 G <.E.Q.W.E.P.1.-.6.6.",
"Y.Y.U.2.2.2.2.2.2.2.K.K.L.K.*.F 5 : % r / r.oX;X1X8X0X0X0X0X0XaXaXaXdXdXdXdXdXdXdXdXhXgXgXdX8X#X$.e $ % 2 G 2.E.Q.Q.E.P.1.-.6.6.",
"T.T.U.4.2.2.2.2.2.2.4.K.L.K.! n , @ $ w { a.;X4X8X0X0XaXaXdXgXgXgXjXjXjXjXjXjXjXjXjXcXcXnXkXaX;Xw.p % : 2 Y G.E.).Q.E.P.1.-.6.6.",
"T.T.U.4.2.2.2.2.2.2.4.K.L.4.! n < o $ e O.XX1X8X0XaXpXaXgXjXcXbXbXbXMXMXMXMXMXMXMXMXMXBXBXMXjX1Xu.g * : 2 Y K.Q.).).E.P.1.-.6.6.",
"Y.Y.U.2.2.2.2.2.2.2.K.L.L.K.! n < o $ a $.oX2X0XpXaXaXdXjXbXMXNXNXNXNXNXNXNXNXNXNXNXVXVXVXNXlX5Xp.g & : 2 Y L.Q.).Q.E.P.1.-.6.6.",
"U.U.P.2.2.K.K.K.K.K.K.I.I.K.>.M 1 % = d e.#X2X0XpXpXaXhXcXMXVXNXCXmXlXlXlXlXlXvXmXmXmXmXbXlXzX>Xr.d & < m T I.).).Q.I.4.;.-.6.6.",
"P.P.9.1.4.K.L.L.I.I.I.E.E.I.<.V 1 % * f w.#X6XiXpXpXaXgXbXNXVXCXlXyXeXqXqXqXqXeXwXwXwXwXeXeX>Xp.{ w & , n ~ !.).Q.E.K.1.:.X.6.6.",
"9.9.5.,.4.L.I.I.E.E.E.W.Q.E.<.G 2 % * f w.&X6XiXpXpXaXjXbXVXVXlXwX,Xd.p.p.p.p.d.d.d.d.d.d.a.r.} p = % 1 M >.!.Q.E.L.1.*.-. .6.6.",
"5.5.;.,.2.K.I.E.E.E.E.Q.Q.E.G.G 5 : * f w.#X6XiXiXpXdXjXMXVXCXzX>Xp.} g g g g g } } } } g g g w = + % 1 F <.I.E.I.2.*.&. ._ 6.6.",
";.;.;.*.1.K.I.!.E.E.E.W.Q.E.<.G 2 % * d e.#X2X0XiXpXdXjXMXVXCXzX>Xp.g e e e e 0 = = = * 0 w w 0 $ + % 1 F >.K.I.K.,.&._ ) _ @.@.",
";.;.:.&.,.1.K.K.L.L.I.I.I.L.>.V 1 % * p $.oX<X0X0XpXdXkXMXVXNXlXqXd.%.{ { { ' a #     # 0 f ' g e = % , n U <.2.1.&. .) ) ) @.@.",
"6.6.-. .&.=.1.1.1.1.1.4.K.1.! n , % = p +.XX:X4X0X0XdXjXMXVXVXmXzX5X;X$X$X$Xa.O.9 .   6 ' u.a.u.{ e % : y G *.1.:. ._ ) ) ) @.@.",
"6.6.-. . .&.*.*.*.*.=.,.,.=.J b < % $ r { a.=X1X4X0XaXgXbXNXVXNXlXzXzXwXwXwX5Xd.' * = g u.;X>X=Xp.g * % 1 n U &.-. ._ ) ) ) @.@.",
"6.6.o._  . .&.&.Q &.&.*.*.&.H u < o + 6 g %.d.=X<X4X0XhXcXbXNXCXCXmXvXxXxXxXyX-X8.b u :.'.qXyXqXf.D & o < b L -.-.X._ ) ) ) 6.6.",
"@.@.o._  .&.&.&.Q &.*.*.=.&.J b < o . $ r ( r.a.$X<X8XaXgXjXlXlXxXxXxXxXxXxXyXrX(.^ T L. XuXuXrXf.A & o < b L -.X.X.) ) ) ) @.@.",
"@.@.@. . .&.*.*.*.*.=.,.,.=.L b , o   . * r / %.a.%X<X8XaXaXsXyXyXuXtXtXtXtXtX|.B.V.V.B.{..XrX].q.u & % , B Q &.-.X.) ) ) ) @.@.",
"6.6.o. .-.*.,.,.,.,.<.1.4.1.*.F t % .   . $ r / r.d.;X1X1X1X5XrX@X|.}.}.}.}.}.A.Z.C.C.S.A.{._.J.G 7 % & y P *.;.;.X...) ) ) @.@.",
"6.6.6.-.:.1.1.2.2.2.4.K.K.4.,.L b , . X     $ i | y.'.+X-X+X'.].[./.F.F.v.v.M.Z.Z.S.S.S.Z.Z.c.R k : % > u L ,.2.1.:.X.....) 6.6.",
"7.7.7.*.1.1.2.K.K.K.K.K.L.K.1.*.P u > o .   . , I 3.`.[.].[.Q.~.^.D.c.z.z.z.c.B.Z.A.A.A.Z.B.l.v j : @ > u L 1.K.9.1.;.X.X...6.6.",
"0.0.5.1.1.2.4.K.K.K.K.K.K.K.2.,.Q P u > $   X 4 N T D.^./.^.^.D.J.J.J.D.D.J.~./._._.{.{._./.D.N 3 % @ < u U <.P.U.P.1.;.-.X.6.6.",
"U.U.9.1.1.2.4.K.K.K.K.K.K.K.K.4.1.*.H u > . O - l h.z.v.v.v.c.D.~.W.`.`.`.`.'.'.].].].].].'.9._ i & $ > y L 2.I.E.I.P.1.;.X.6.6.",
"U.U.U.2.2.2.2.2.2.2.4.4.4.4.K.K.L.G.! F 8 % O 4 l h.z.x.M.v.F./.[.'.+X=X=X=X=X-X-X-X,X,X,X-Xd.%.g 6 $ : y J 2.E.Q.E.I.P.1.-.6.6.",
"Y.Y.U.4.2.2.2.2.2.2.2.4.4.4.K.L.~.~.N.Y 7 : % 3 E l.c.F.F.F./.[.].,X1X4X6X4X1X1X1X1X1X4X4X1X$Xu./ 0 $ : 5 J 2.E.Q.Q.E.P.1.-.6.6.",
"Y.Y.U.K.4.2.2.2.2.2.4.4.4.4.K.~.^.^.l.R k < % , I ` ~./././.[.].-X1X8X9X9X9X7X7X7X7X7XiXiX6X&Xi.' 9 $ : 5 G 2.E.Q.Q.E.P.1.-.6.6.",
"Y.Y.U.K.2.2.2.2.2.2.4.4.4.4.G.~.^.c.z.v l - % r A 7.`.].].].'.+X>X1X8X9X9X9X7X8X7X7X7XiXiX7X*Xi.] w $ : 5 G 2.E.Q.Q.E.P.1.-.6.6.",
"Y.Y.U.2.2.2.2.2.2.2.2.4.2.G.H.^.c.x.k.g.h - % w / t.d.+X-X-X-X=X:X:X*X*X<X<X<X<X<X<X3X8X0X8X<Xs.] e $ % 2 G 2.E.Q.Q.E.P.1.-.6.6.",
"U.U.U.2.2.2.2.4.4.2.2.G.G.H.J.c.v.x.k.g.h - % e ' u.oX;X>X>X;X%X#XXXOXOXXXXXXXs.s.s.#X*X<X4X:Xs.O.w $ % 2 G 2.E.Q.W.E.P.1.-.6.6.",
"U.U.U.2.2.2.4.4.4.4.2.G.H.c.c.v.M.m.k.g.h - % 9 ' u.$X>X1X1X;XoXi.w.[ [ [ O.O.O.] O.w.s.$X:X;Xs.O.w $ % 2 G 2.E.Q.Q.E.P.1.-.6.6.",
"U.U.U.2.2.2.4.4.4.4.G.H.N.c.x.m.m.m.k.g.h - % e ' u.$X>X1X:XoXa.$./ a 9 9 9 9 w 9 w g $.a.oXoXu.' r $ : y J 2.E.W.W.E.P.1.-.6.6.",
"U.U.U.2.2.2.4.4.4.4.G.H.c.z.x.m.n.n.k.g.h - % e ] u.oX;X;X+Xf.%.( t : O o . . . $ = p ( %.p.p.%./ r & , m J <.I.W.W.E.P.1.-.6.6.",
"U.U.U.2.2.2.4.4.4.4.G.J.c.x.m.n.n.n.k.g.h - & p O.a.+X=XoXa.%.) n k - ; O     . $ 6 p ( +.#.+.( s q , y n U <.L.E.E.E.P.1.-.6.6.",
"U.U.U.2.2.2.4.4.4.4.G.J.c.x.m.n.n.n.k.g.h - & d O.a.oXoXa.%.( n l l h z ; X   # 0 g { } } / s s i t u n F U >.K.I.E.!.P.1.-.6.6.",
"U.U.U.2.2.2.4.4.4.4.G.J.c.x.m.n.n.m.k.g.h - & p O.p.d.a.%./ i k x c c h z ; o 6 f { %.#.( p r , t b M G U ! >.2.L.!.I.P.1.-.6.6.",
"Y.Y.U.2.2.2.1.4.5.1.<.H.c.z.x.m.m.b.k.c z - $ e ' r.p.%.' p , k x h.h.c h - % 0 / $.r.#./ r > < 5 n J U ! ! >.<.K.I.I.P.1.-.6.6.",
"T.T.U.4.2.2.1.1.1.1.<.H.l.l.z.z.x.z.j.x j ; + 6 d ' O.' f w , k v j.j.v l - @ 6 f { +.+.g q < 1 m V U ! *.*.>.<.K.L.L.K.1.-.6.6.",
"T.T.U.K.4.2.1.1.,.,.>.~ T l.l.l.l.l.R N 3 O . # 6 e p p e r 8 m R l.l.v k - . # 0 p g g s t y m M J ! *.>.>.>.<.G.G.K.2.;.-.6.6.",
"Y.Y.U.K.K.4.2.1.,.*.! U T T T l.l.T Y M 2 % . . + $ * 6 r q u I Y T T N k : . . $ * r t u b B F J U ! >.>.>.<.<.<.<.<.1.:.X.6.6.",
"U.U.P.2.K.K.K.2.,.*.*.! ! ! ! >.>.~ U F y , @ . . . + & 8 i A K U U Y M y , $ o o @ > t b F U ! ! *.! ~ >.<.<.<.<.>.>.*.&. .6.6.",
"P.P.9.2.K.K.K.K.2.,.*.! ! ! *.=.,.*.Q J B y , : O o % > q s S K _ L H Z b y , < : : , y M U >.<.<.>.>.>.<.<.<.<.>.! ! Q _ _ 6.6.",
"9.9.4.1.K.L.I.L.G.<.>.! *.*.=.=.,.=.*.Q J F b y 1 < < , t s A D K K P Z Z B n m m m m M Y ! <.2.<.<.<.<.<.<.<.>.! U L L K ) @.@.",
"5.5.1.,.4.L.I.L.K.2.<.>.>.>.>.,.,.,.,.>.*.U J V n m y i u C A S S Z P P J J Y Y Y G Y Y ! >.<.<.<.<.<.<.<.<.>.! U J H P K ) @.@.",
":.:.&.=.1.K.L.L.K.2.<.>.>.>.>.>.>.>.>.>.>.>.! U J F B C C C A A A Z Z H U ! *.>.>.~ ~ ~ >.>.>.>.>.>.>.<.<.>.~ ! J H P S D ) X.X.",
" . . .&.1.2.K.K.2.<.>.>.*.! ! ! ! ! *.>.>.>.*.Q L H Z Z A C A C C A Z H L ! >.>.>.>.>.>.! ! ! ! ! ! ! ! ! ! ! U L P S S D ) ) ) ",
"_ _  . .*.,.1.,.,.>.*.! Q U U U U U U U ! Q Q U L H S S A A A C C A A S L U Q ! ! ! ! Q U U U U U U U U U U J L H K D D ) ) ) ) ",
"o.o.X. .&.&.*.*.*.&.Q U L J H H H H H J J J L H P S S A A A A A A C A Z P H J L J L J J J J H H H H H H H H H P P K ) ) ) | @.@.",
"8.8.8.6.6.;.;.;.;.;.;.:.&. . .W W W W W  . . . .| | | | | | | | | | | | |  . . . . . . . . . . . . .W W W W  . .X.o.@.@.6.6.t.t.",
"8.8.8.6.6.;.;.;.;.;.;.:.&. . .W W W W W  . . . .| | | | | | | | ) | | | |  . . . . . . . . . . . . .W W W W  . .X.o.@.@.6.6.t.t."
};
