/* XPM */
static char *fafbdd36f2b44726f66638da4bd7f216MJvGUjfi8EumBZpA[] = {
/* columns rows colors chars-per-pixel */
"64 64 62 1 ",
"  c #333E52",
". c #364256",
"X c #364359",
"o c #39465C",
"O c #3B485E",
"+ c #3D4B62",
"@ c #3F4E68",
"# c #404F67",
"$ c #404F68",
"% c #415067",
"& c #43526B",
"* c #48566F",
"= c #465670",
"- c #485770",
"; c #475872",
": c #4A5A73",
"> c #4D5E7B",
", c #505F7A",
"< c #4E617D",
"1 c #52637E",
"2 c #4F6280",
"3 c #536583",
"4 c #576984",
"5 c #586A86",
"6 c #546788",
"7 c #566A8B",
"8 c #596D8C",
"9 c #596D8D",
"0 c #5C6F8E",
"q c #5B708E",
"w c #5C708E",
"e c #5B6E90",
"r c #5C6F90",
"t c #5C7090",
"y c #5C7092",
"u c #5C7193",
"i c #5F7596",
"p c #607392",
"a c #607493",
"s c #627696",
"d c #637796",
"f c #637897",
"g c #637798",
"h c #63789A",
"j c #647899",
"k c #64799D",
"l c #667B9D",
"z c #667B9E",
"x c #667C9F",
"c c #687D9E",
"v c #677DA0",
"b c #6A7FA2",
"n c #6B80A2",
"m c #6C81A3",
"M c #6B81A4",
"N c #6D82A4",
"B c #6E84A7",
"V c #6F84A8",
"C c #7187AA",
"Z c #7287AC",
"A c #7288AB",
"S c #7389AE",
/* pixels */
"@@@+oX....XXXXXXXXXXXXXXXX...Xoo+@@+oX....XXXXXXXXXXXXXXXXXX....",
"@@@+oX....XXXXXXXXXXXXXXXX...Xoo+@++oX....XXXXXXXXXXXXXXXXXX....",
"##@++ooooooooooooooooooooooooo++@@@@+ooooooooooooooooooooooooooo",
"$$%%&**----------------------**&%%%%&***-------------------*****",
"%%%->13444444444444444444444431:*%&=>134454444444444444444433333",
"%%*>3wsjjgssssssssssssssssgjjs81:**>3qsjjsssssssssssssssssssssss",
"&&-10jNVBNbbbbbbbbbbbbbbbbNVVmg5<-:<8jNVBmbbbbbbbbbbbbbbbbbnNNNN",
"**:3anSSSVMbbbbbbbbbbbbbbMVSSCc0<::3pnSSCNnbbbbbbbbbbbbbbMNVCSSS",
"**:3snASVnxzzzzzzzzzzzzzzxMVSCcw<::3tnCZVbzzzzzzzzzzzzzzzzbMVSSS",
"%%-1wjnbzsteeetttttttteeetgxbbf8>-:<8jbbziteeetttttttteeetthcmmm",
"@@%:38tt832><<33333333<<<268tw51-%%:18tr732><233333332<><2378tpp",
"ooo%->,>:=&%%&=;:>>:;=&%%&=:><:*@o+#*><>:=&%%&=::>>:-*&%%&=:>111",
"..Xo+#%$@+oooo+$&==&$+oooo+@$%#+oXXo+#%$@+ooo+@%&=*&#+oooo+@#%%%",
"...XooooooXXXXo+@$$@+oXXXXooooooX..XooooooXXXXo+@%$@OoXXXXoooooo",
"OOOOOOOOO+oooo++@@@@++ooooOOOOOOOOOOOOOOOOoooo++@@@@+OooooO+OOOO",
"--***********&&%####%&************************%%#@##%&**********",
"33333333333331>:*%%*:,133333113336333311133331>:&%%*:13333331111",
"sssassasassfsa81:&*:18sjfssaapassssssaaaassjst51:&*:30sfssaaappa",
"cccxxxxxxxbNNbs5>=-<8jmNNbxxzxxxxccxxxxxccnNNbs4>*:<8jmNmbxxxxxx",
"xxxxxxxzzvnBCBz8<::1wcCCVMxzzxxxvvvvxxxzxbMVCNj8>-:1tbCCNbxzzxxx",
"ggggggggggzMVNz0<::1wcVCNvggggggggggggggghvNVNj8>::1tbBBbzgggggg",
"ttttttteetgxnnj81::<8jnbxgteettttttttttettgvnbs5>-:1wzMbzsteettt",
"8888888778tgzxs8<:->4tgggt8778888888888788thvzs4>-:18gxzgt877888",
"7777787778tghht7<-*:148tee8778777777787778tgzgt6>-:<5shgte877777",
"7777777777etit83>=&*->16777887777777777778etit83:*->6ettte777777",
"777777766778873<:&@@#&:>23777777777766767778873>=&*:<67877766777",
"33332<>>>><31<>=%@oooo+%->><22<233332<>>>><2<>:*#@@%=><33<>>>>>>",
">>>:-=&&&&&&&&$@+X.  ..o@%&&**=:>>>::=&&&&&&&%@+oXoo@$&&&&&&&&&&",
"--=&$+++o+++oooXX.     .Xo++++@%*==&$@+o+++++ooX...XXo++++++++++",
"%%%@+ooXXXoooXXXX... ...XXXoXoo+#%%@+ooXXXooXXX.....XXXooooooooo",
"@@@@+++OO+++O++O+++++++++++OO+++@@@@++OoO+++++++O+++++++OO+++OOO",
"@@@%%&***-****--::::::::--****&%#@##%*********--::::--**********",
"##%*>13454444444554444554444431:*%%*:134444444445555444444333333",
"%%*>3wsjjgssssssssssssssssgjjs81:**:3wsjjsssssssssssssssssssssss",
"%%*18jmNNbbccbbbccccccxxxcbNNns4>*-18jnNNbcxxxcccbccccxxxccbnmmm",
"&&-3tcVCVnbxxbbbbxxxxxzzzbMVCBj8<-:1wcVCBnxzzzxxxxxxxxzzzxbnNCVC",
"&&:3tcBBMxhggghhgggggggsshxMVNj8<::1wcNBnzggsgggggggggggggzbNVVC",
"&&-1wjnbzgteeeettttttteeetgxbbh8<-:18jnbzgteeetttttttteeetihbNNN",
"**-18gxzgt8733367788888788thzzs7>-:<8gzzgt8778888888888788tsjbbb",
"**-<7ijzgt732<<23778887778tgzgt4>-:<7thgie8777777777787778etgzzz",
"&&*>68iite72>::>2378887777ettt83:*=>38ttt877777777777777778ettii",
"%%%:<378873>=&*->37777633677873>=%&:>378776666777777766366777777",
"+++%=:>22>:&@+@%:<3332>>>>><<>:*@+@%*:><<>>>>><23333<>>>>>>>>>>>",
"XXX++@%&&&@+oXo+&:>>:=&%%&&&&%@+oXoo+@%&&&%%%&=::>>:-&&%&&&%%%%%",
"...XXooo++oX...o#&=*%++ooo++oooX....Xooo++ooo+@%***%#++ooooooooo",
"...XXXooooX...Xo@$%#+ooXXXoooXXXX..X.XXoooXXXoo+#%%@+ooXXXoooXXX",
"+++++++++++++++@@@@@+++++++++++++++++++++++++++@@@@@++++++++++++",
"::::::::::::::*&%##%%**-::::::::::::::::::::--*%%@#%&*-:::::::::",
"555545555555543>*%%*:14555555545555555555455531:*%%*>15555555555",
"ggssssssssjjjsw3:**:3wsjjjssssssssssssssssjjjs81:**>3tjjjjssssss",
"ccccccxxxbnNNnj8<--<8jmNNncxxxccccccccxxxbnNBbs4>*:18zNBNbcxxxxx",
"zzzzzzzzzzbBCBz8<:-<8xVCBbzzzzzzzzzzzzzzzcMVCNj8>-:1tbCCNbzzzzzz",
"ggggggsssgznNNz8<::<8xNNnzgsssggggggggsssgxMBNj8>-:1tcNNbzgssiis",
"eeeeeee88eizbbh8<::<8jbbzie88eeeeeeeeee8etgzbbs5>-:10zbbjte88eee",
"7777777777tgzzs4>*-<7szzgt7777777777777778tgzjt4>=:<8szjse777777",
"7777777777etggt3>*=>6tggte7777777777777777etgs83:*-<4tggte777777",
"77777777778ttt83:**:38ttt877777777777777778ttt7<:**:38tte8777777",
"777777777778873>:&&:>37887777777777777777778873>-&*:<67887777777",
"33333333333333<:=%&=:<333333333333333333333333<;*%&=>33333333333",
">>>>>>>>>>>>>>:=&%%&=:>>>>>>>>>>>>>>>>>>>>>>>>;=%%%&-:>>>>>>>>>>",
"-------------=*&%%%%&*=---------------------==*&%%%%&*=---------",
"%%&%&&&&%%&%%%%%%##$%%%%%%&&&&&&%%&%&&&&&%&%%%%%$#$%%%%%%%&&&&&&",
"%%%%%%%%%%%%%%%%###$%%%%%%%%%%%%%%%%%%%%%%%%%%%%###$%%%%%%%%%%%%",
"%%%%%%%%%%%%%%%%###$%%%%%%%%%%%%%%%%%%%%%%%%%%%%###$%%%%%%%%%%%%"
};
